<?xml version="1.0" encoding="utf-8"?>
<svg xmlns="http://www.w3.org/2000/svg" xmlns:xlink="http://www.w3.org/1999/xlink" width="600" height="300" viewBox="0 0 2400 1200">
<defs>
  <clipPath id="clip430">
    <rect x="0" y="0" width="2400" height="1200"/>
  </clipPath>
</defs>
<defs>
  <clipPath id="clip431">
    <rect x="480" y="0" width="1681" height="1200"/>
  </clipPath>
</defs>
<defs>
  <clipPath id="clip432">
    <rect x="224" y="47" width="2129" height="1001"/>
  </clipPath>
</defs>
<polyline clip-path="url(#clip432)" style="stroke:#adb2b7; stroke-linecap:round; stroke-linejoin:round; stroke-width:2; stroke-opacity:0.1; fill:none" points="284.562,1047.7 284.562,47.2441 "/>
<polyline clip-path="url(#clip432)" style="stroke:#adb2b7; stroke-linecap:round; stroke-linejoin:round; stroke-width:2; stroke-opacity:0.1; fill:none" points="953.88,1047.7 953.88,47.2441 "/>
<polyline clip-path="url(#clip432)" style="stroke:#adb2b7; stroke-linecap:round; stroke-linejoin:round; stroke-width:2; stroke-opacity:0.1; fill:none" points="1623.2,1047.7 1623.2,47.2441 "/>
<polyline clip-path="url(#clip432)" style="stroke:#adb2b7; stroke-linecap:round; stroke-linejoin:round; stroke-width:2; stroke-opacity:0.1; fill:none" points="2292.52,1047.7 2292.52,47.2441 "/>
<polyline clip-path="url(#clip430)" style="stroke:#adb2b7; stroke-linecap:round; stroke-linejoin:round; stroke-width:4; stroke-opacity:1; fill:none" points="224.323,1047.7 2352.76,1047.7 "/>
<polyline clip-path="url(#clip430)" style="stroke:#adb2b7; stroke-linecap:round; stroke-linejoin:round; stroke-width:4; stroke-opacity:1; fill:none" points="224.323,47.2441 2352.76,47.2441 "/>
<polyline clip-path="url(#clip430)" style="stroke:#adb2b7; stroke-linecap:round; stroke-linejoin:round; stroke-width:4; stroke-opacity:1; fill:none" points="284.562,1047.7 284.562,1028.8 "/>
<polyline clip-path="url(#clip430)" style="stroke:#adb2b7; stroke-linecap:round; stroke-linejoin:round; stroke-width:4; stroke-opacity:1; fill:none" points="953.88,1047.7 953.88,1028.8 "/>
<polyline clip-path="url(#clip430)" style="stroke:#adb2b7; stroke-linecap:round; stroke-linejoin:round; stroke-width:4; stroke-opacity:1; fill:none" points="1623.2,1047.7 1623.2,1028.8 "/>
<polyline clip-path="url(#clip430)" style="stroke:#adb2b7; stroke-linecap:round; stroke-linejoin:round; stroke-width:4; stroke-opacity:1; fill:none" points="2292.52,1047.7 2292.52,1028.8 "/>
<path clip-path="url(#clip430)" d="M274.458 1110.1 Q274.458 1109.19 274.532 1108.91 Q274.631 1108.64 275.026 1108.22 L284.735 1097.4 Q290.046 1091.42 290.046 1086.21 Q290.046 1082.83 288.267 1080.41 Q286.513 1077.99 283.277 1077.99 Q281.054 1077.99 279.176 1079.34 Q277.299 1080.7 276.434 1083.12 Q276.583 1083.07 277.101 1083.07 Q278.361 1083.07 279.053 1083.86 Q279.769 1084.66 279.769 1085.72 Q279.769 1087.08 278.88 1087.74 Q278.015 1088.39 277.151 1088.39 Q276.805 1088.39 276.336 1088.31 Q275.891 1088.24 275.175 1087.55 Q274.458 1086.83 274.458 1085.57 Q274.458 1082.04 277.126 1079.22 Q279.819 1076.4 283.92 1076.4 Q288.564 1076.4 291.602 1079.17 Q294.665 1081.91 294.665 1086.21 Q294.665 1087.72 294.196 1089.1 Q293.751 1090.46 293.134 1091.52 Q292.541 1092.59 290.911 1094.29 Q289.28 1095.99 287.971 1097.2 Q286.662 1098.42 283.722 1100.98 L278.361 1106.2 L287.477 1106.2 Q291.923 1106.2 292.269 1105.8 Q292.763 1105.09 293.381 1101.31 L294.665 1101.31 L293.233 1110.1 L274.458 1110.1 Z" fill="#ffffff" fill-rule="nonzero" fill-opacity="1" /><path clip-path="url(#clip430)" d="M943.381 1103.28 Q943.381 1101.77 944.246 1101.06 Q945.111 1100.34 946.222 1100.34 Q947.383 1100.34 948.199 1101.11 Q949.038 1101.85 949.038 1103.16 Q949.038 1104.57 948.05 1105.36 Q947.087 1106.15 945.703 1105.95 Q946.914 1107.98 949.137 1108.89 Q951.385 1109.8 953.46 1109.8 Q955.634 1109.8 957.388 1107.93 Q959.167 1106.05 959.167 1101.45 Q959.167 1097.55 957.635 1095.3 Q956.128 1093.05 953.139 1093.05 L950.916 1093.05 Q950.15 1093.05 949.928 1092.98 Q949.705 1092.91 949.705 1092.49 Q949.705 1091.99 950.471 1091.89 Q951.237 1091.89 952.447 1091.75 Q955.387 1091.65 956.944 1089.1 Q958.352 1086.73 958.352 1083.35 Q958.352 1080.26 956.869 1078.97 Q955.412 1077.66 953.51 1077.66 Q951.731 1077.66 949.78 1078.41 Q947.828 1079.15 946.766 1080.8 Q949.903 1080.8 949.903 1083.35 Q949.903 1084.46 949.187 1085.2 Q948.495 1085.92 947.334 1085.92 Q946.222 1085.92 945.481 1085.22 Q944.74 1084.51 944.74 1083.3 Q944.74 1080.41 947.309 1078.41 Q949.903 1076.4 953.707 1076.4 Q957.462 1076.4 960.229 1078.38 Q963.021 1080.36 963.021 1083.4 Q963.021 1086.38 961.044 1088.83 Q959.068 1091.28 955.931 1092.29 Q959.784 1093.05 962.082 1095.67 Q964.379 1098.27 964.379 1101.45 Q964.379 1105.41 961.267 1108.32 Q958.154 1111.21 953.609 1111.21 Q949.409 1111.21 946.395 1108.94 Q943.381 1106.67 943.381 1103.28 Z" fill="#ffffff" fill-rule="nonzero" fill-opacity="1" /><path clip-path="url(#clip430)" d="M1611.98 1101.75 L1611.98 1100.19 L1627.52 1076.45 Q1627.92 1075.84 1628.53 1075.86 Q1629.1 1075.86 1629.23 1076.08 Q1629.35 1076.31 1629.35 1077.17 L1629.35 1100.19 L1634.41 1100.19 L1634.41 1101.75 L1629.35 1101.75 L1629.35 1106.15 Q1629.35 1107.6 1629.94 1108.07 Q1630.56 1108.54 1633.18 1108.54 L1634.24 1108.54 L1634.24 1110.1 Q1632.17 1109.95 1627.37 1109.95 Q1622.61 1109.95 1620.53 1110.1 L1620.53 1108.54 L1621.59 1108.54 Q1624.21 1108.54 1624.83 1108.1 Q1625.45 1107.63 1625.45 1106.15 L1625.45 1101.75 L1611.98 1101.75 M1613.42 1100.19 L1625.74 1100.19 L1625.74 1081.32 L1613.42 1100.19 Z" fill="#ffffff" fill-rule="nonzero" fill-opacity="1" /><path clip-path="url(#clip430)" d="M2282.41 1101.95 Q2282.41 1100.44 2283.23 1099.87 Q2284.04 1099.28 2284.91 1099.28 Q2286.07 1099.28 2286.74 1100.02 Q2287.43 1100.74 2287.43 1101.75 Q2287.43 1102.76 2286.74 1103.5 Q2286.07 1104.22 2284.91 1104.22 Q2284.34 1104.22 2284.04 1104.12 Q2284.71 1106.44 2286.74 1108.12 Q2288.79 1109.8 2291.48 1109.8 Q2294.86 1109.8 2296.89 1106.52 Q2298.1 1104.39 2298.1 1099.58 Q2298.1 1095.33 2297.19 1093.2 Q2295.78 1089.97 2292.89 1089.97 Q2288.79 1089.97 2286.37 1093.5 Q2286.07 1093.94 2285.72 1093.97 Q2285.23 1093.97 2285.11 1093.7 Q2285.01 1093.4 2285.01 1092.63 L2285.01 1077.66 Q2285.01 1076.45 2285.5 1076.45 Q2285.7 1076.45 2286.12 1076.6 Q2289.31 1078.01 2292.84 1078.03 Q2296.47 1078.03 2299.73 1076.55 Q2299.98 1076.4 2300.13 1076.4 Q2300.62 1076.4 2300.64 1076.97 Q2300.64 1077.17 2300.22 1077.76 Q2299.83 1078.33 2298.96 1079.1 Q2298.1 1079.84 2296.99 1080.55 Q2295.88 1081.27 2294.25 1081.77 Q2292.64 1082.23 2290.86 1082.23 Q2288.74 1082.23 2286.56 1081.57 L2286.56 1091.42 Q2289.18 1088.85 2292.99 1088.85 Q2297.04 1088.85 2299.83 1092.12 Q2302.62 1095.38 2302.62 1099.92 Q2302.62 1104.69 2299.31 1107.95 Q2296.03 1111.21 2291.58 1111.21 Q2287.53 1111.21 2284.96 1108.32 Q2282.41 1105.43 2282.41 1101.95 Z" fill="#ffffff" fill-rule="nonzero" fill-opacity="1" /><path clip-path="url(#clip430)" d="M1034.81 1192.56 L1034.81 1190.42 Q1037.32 1190.42 1038.92 1189.95 Q1040.51 1189.44 1041.09 1188.52 Q1041.67 1187.57 1041.8 1186.96 Q1041.97 1186.31 1041.97 1185.26 L1041.97 1148.95 Q1041.97 1147.97 1041.7 1147.73 Q1041.46 1147.49 1040.27 1147.35 Q1038.2 1147.22 1036.81 1147.22 L1034.81 1147.22 L1034.81 1145.04 L1046.63 1145.04 Q1047.61 1145.04 1047.88 1145.18 Q1048.15 1145.32 1048.63 1145.96 L1073.19 1182.07 L1073.19 1152.35 Q1073.19 1151.29 1073.05 1150.68 Q1072.92 1150.07 1072.3 1149.12 Q1071.73 1148.17 1070.13 1147.69 Q1068.53 1147.22 1066.02 1147.22 L1066.02 1145.04 Q1073.32 1145.25 1074.14 1145.25 Q1074.99 1145.25 1082.29 1145.04 L1082.29 1147.22 Q1079.78 1147.22 1078.18 1147.69 Q1076.58 1148.17 1076.01 1149.12 Q1075.43 1150.07 1075.26 1150.72 Q1075.12 1151.33 1075.12 1152.35 L1075.12 1190.76 Q1075.12 1191.88 1074.99 1192.22 Q1074.85 1192.56 1074.17 1192.56 Q1073.7 1192.56 1072.98 1191.65 L1044.59 1149.94 Q1044.32 1149.53 1043.91 1149.09 L1043.91 1185.26 Q1043.91 1186.31 1044.04 1186.96 Q1044.18 1187.57 1044.76 1188.52 Q1045.37 1189.44 1046.97 1189.95 Q1048.56 1190.42 1051.08 1190.42 L1051.08 1192.56 Q1043.77 1192.36 1042.92 1192.36 Q1042.11 1192.36 1034.81 1192.56 Z" fill="#ffffff" fill-rule="nonzero" fill-opacity="1" /><path clip-path="url(#clip430)" d="M1086.91 1164.74 L1086.91 1162.57 L1097.13 1161.82 L1097.13 1184.92 Q1097.13 1186.59 1097.27 1187.57 Q1097.41 1188.52 1097.95 1189.64 Q1098.53 1190.76 1099.82 1191.27 Q1101.14 1191.78 1103.25 1191.78 Q1107.02 1191.78 1109.33 1188.69 Q1111.67 1185.6 1111.67 1181.02 L1111.67 1168.62 Q1111.67 1166.04 1110.76 1165.39 Q1109.84 1164.74 1106.24 1164.74 L1106.24 1162.57 L1116.46 1161.82 L1116.46 1186.52 Q1116.46 1189.1 1117.35 1189.78 Q1118.26 1190.42 1121.9 1190.42 L1121.9 1192.56 L1111.88 1193.35 L1111.88 1187.06 Q1108.96 1193.31 1102.91 1193.35 Q1099.85 1193.35 1097.75 1192.56 Q1095.67 1191.78 1094.62 1190.83 Q1093.57 1189.85 1092.99 1187.98 Q1092.45 1186.11 1092.38 1184.96 Q1092.31 1183.8 1092.31 1181.56 L1092.31 1171.13 Q1092.31 1166.41 1091.63 1165.59 Q1090.95 1164.74 1086.91 1164.74 Z" fill="#ffffff" fill-rule="nonzero" fill-opacity="1" /><path clip-path="url(#clip430)" d="M1125.5 1192.56 L1125.5 1190.42 Q1129.2 1190.42 1130.05 1189.98 Q1130.9 1189.51 1130.9 1187.26 L1130.9 1168.62 Q1130.9 1166.04 1129.98 1165.39 Q1129.1 1164.74 1125.5 1164.74 L1125.5 1162.57 L1135.28 1161.82 L1135.28 1169.13 Q1138.54 1161.82 1145.57 1161.82 Q1153.72 1161.82 1154.84 1168.62 Q1156.03 1165.97 1158.51 1163.9 Q1161.03 1161.82 1164.93 1161.82 Q1170.16 1161.82 1172.24 1164.41 Q1173.76 1166.14 1174.07 1168.07 Q1174.38 1170.01 1174.38 1175.04 L1174.38 1188.32 Q1174.44 1189.78 1175.56 1190.12 Q1176.69 1190.42 1179.81 1190.42 L1179.81 1192.56 Q1172.71 1192.36 1172.03 1192.36 Q1171.49 1192.36 1164.15 1192.56 L1164.15 1190.42 Q1167.85 1190.42 1168.7 1189.98 Q1169.59 1189.51 1169.59 1187.26 L1169.59 1171.06 Q1169.59 1167.53 1168.5 1165.46 Q1167.41 1163.35 1164.42 1163.35 Q1160.82 1163.35 1157.94 1166.38 Q1155.05 1169.4 1155.05 1174.49 L1155.05 1187.26 Q1155.05 1189.51 1155.9 1189.98 Q1156.78 1190.42 1160.48 1190.42 L1160.48 1192.56 Q1153.38 1192.36 1152.67 1192.36 Q1152.13 1192.36 1144.82 1192.56 L1144.82 1190.42 Q1148.53 1190.42 1149.38 1189.98 Q1150.26 1189.51 1150.26 1187.26 L1150.26 1171.06 Q1150.26 1167.53 1149.17 1165.46 Q1148.09 1163.35 1145.1 1163.35 Q1141.5 1163.35 1138.61 1166.38 Q1135.72 1169.4 1135.72 1174.49 L1135.72 1187.26 Q1135.72 1189.51 1136.57 1189.98 Q1137.45 1190.42 1141.12 1190.42 L1141.12 1192.56 Q1134.02 1192.36 1133.34 1192.36 Q1132.8 1192.36 1125.5 1192.56 Z" fill="#ffffff" fill-rule="nonzero" fill-opacity="1" /><path clip-path="url(#clip430)" d="M1181.17 1147.22 L1181.17 1145.04 L1191.19 1144.3 L1191.19 1166.34 Q1195.23 1161.82 1200.73 1161.82 Q1206.71 1161.82 1211.09 1166.41 Q1215.48 1170.99 1215.48 1177.55 Q1215.48 1184.17 1210.89 1188.76 Q1206.31 1193.35 1199.95 1193.35 Q1194.18 1193.35 1190.85 1188.25 Q1188.4 1192.5 1188.34 1192.56 L1186.6 1192.56 L1186.6 1151.09 Q1186.6 1148.51 1185.69 1147.86 Q1184.77 1147.22 1181.17 1147.22 M1191.39 1184.65 Q1191.39 1186.11 1192.38 1187.57 Q1195.13 1191.78 1199.61 1191.78 Q1199.65 1191.78 1199.68 1191.78 Q1204.54 1191.78 1207.56 1187.33 Q1209.7 1184 1209.7 1177.48 Q1209.7 1171.03 1207.7 1167.8 Q1204.91 1163.35 1200.39 1163.35 Q1195.3 1163.35 1192.17 1167.8 Q1191.39 1168.92 1191.39 1170.32 L1191.39 1184.65 Z" fill="#ffffff" fill-rule="nonzero" fill-opacity="1" /><path clip-path="url(#clip430)" d="M1221.69 1177.24 Q1221.69 1170.69 1225.9 1166.04 Q1230.12 1161.38 1236.16 1161.38 Q1242.28 1161.38 1245.44 1165.36 Q1248.63 1169.33 1248.63 1175.04 Q1248.63 1176.09 1248.36 1176.29 Q1248.08 1176.5 1246.9 1176.5 L1227.47 1176.5 Q1227.47 1183.6 1229.57 1186.93 Q1232.49 1191.58 1237.42 1191.58 Q1238.1 1191.58 1238.91 1191.44 Q1239.73 1191.31 1241.39 1190.73 Q1243.06 1190.12 1244.52 1188.52 Q1245.98 1186.93 1246.83 1184.41 Q1247.03 1183.43 1247.71 1183.46 Q1248.63 1183.46 1248.63 1184.28 Q1248.63 1184.89 1247.95 1186.28 Q1247.3 1187.64 1246.05 1189.27 Q1244.79 1190.9 1242.34 1192.12 Q1239.93 1193.35 1237.01 1193.35 Q1230.9 1193.35 1226.28 1188.73 Q1221.69 1184.07 1221.69 1177.24 M1227.53 1175.04 L1244.04 1175.04 Q1244.04 1173.58 1243.77 1171.95 Q1243.53 1170.32 1242.79 1168.07 Q1242.07 1165.8 1240.37 1164.37 Q1238.68 1162.94 1236.16 1162.94 Q1235.04 1162.94 1233.82 1163.42 Q1232.63 1163.9 1231.17 1165.05 Q1229.71 1166.21 1228.69 1168.82 Q1227.67 1171.44 1227.53 1175.04 Z" fill="#ffffff" fill-rule="nonzero" fill-opacity="1" /><path clip-path="url(#clip430)" d="M1252.57 1192.56 L1252.57 1190.42 Q1256.27 1190.42 1257.12 1189.98 Q1258 1189.51 1258 1187.26 L1258 1168.62 Q1258 1166.04 1257.09 1165.39 Q1256.2 1164.74 1252.57 1164.74 L1252.57 1162.57 L1262.25 1161.82 L1262.25 1169.47 Q1263.23 1166.48 1265.31 1164.17 Q1267.41 1161.82 1270.81 1161.82 Q1273.05 1161.82 1274.48 1163.08 Q1275.94 1164.34 1275.94 1166.07 Q1275.94 1167.6 1274.99 1168.38 Q1274.07 1169.13 1272.95 1169.13 Q1271.69 1169.13 1270.81 1168.35 Q1269.96 1167.53 1269.96 1166.14 Q1269.96 1165.29 1270.33 1164.64 Q1270.74 1163.96 1271.05 1163.73 Q1271.35 1163.49 1271.56 1163.42 Q1271.42 1163.35 1270.81 1163.35 Q1266.97 1163.35 1264.76 1167.19 Q1262.59 1170.99 1262.59 1176.43 L1262.59 1187.13 Q1262.59 1189.13 1263.4 1189.78 Q1264.25 1190.42 1267.89 1190.42 L1269.35 1190.42 L1269.35 1192.56 Q1266.56 1192.36 1260.52 1192.36 Q1259.67 1192.36 1258.34 1192.39 Q1257.02 1192.43 1255.29 1192.5 Q1253.55 1192.56 1252.57 1192.56 Z" fill="#ffffff" fill-rule="nonzero" fill-opacity="1" /><path clip-path="url(#clip430)" d="M1307.46 1188.83 Q1302.87 1184.28 1302.87 1177.69 Q1302.87 1171.06 1307.36 1166.24 Q1311.87 1161.38 1318.33 1161.38 Q1324.65 1161.38 1329.16 1166.21 Q1333.72 1170.99 1333.72 1177.69 Q1333.72 1184.24 1329.13 1188.79 Q1324.58 1193.35 1318.26 1193.35 Q1312.08 1193.35 1307.46 1188.83 M1308.65 1177.11 Q1308.65 1183.87 1310.41 1186.93 Q1313.13 1191.58 1318.33 1191.58 Q1320.91 1191.58 1323.05 1190.19 Q1325.22 1188.79 1326.41 1186.45 Q1327.94 1183.39 1327.94 1177.11 Q1327.94 1170.42 1326.11 1167.46 Q1323.39 1162.94 1318.26 1162.94 Q1316.02 1162.94 1313.81 1164.13 Q1311.64 1165.29 1310.31 1167.6 Q1308.65 1170.66 1308.65 1177.11 Z" fill="#ffffff" fill-rule="nonzero" fill-opacity="1" /><path clip-path="url(#clip430)" d="M1338.03 1164.74 L1338.03 1162.57 L1343.5 1162.57 L1343.5 1154.59 Q1343.5 1149.43 1346.83 1146.47 Q1350.19 1143.52 1354.3 1143.52 Q1357.02 1143.52 1358.78 1144.98 Q1360.55 1146.44 1360.55 1148.41 Q1360.55 1149.73 1359.73 1150.61 Q1358.95 1151.46 1357.49 1151.46 Q1356.1 1151.46 1355.28 1150.58 Q1354.5 1149.7 1354.5 1148.47 Q1354.5 1146.23 1356.58 1145.55 Q1355.52 1145.08 1354.3 1145.04 Q1351.79 1145.04 1349.82 1147.63 Q1347.88 1150.21 1347.88 1154.52 L1347.88 1162.57 L1356.03 1162.57 L1356.03 1164.74 L1348.12 1164.74 L1348.12 1187.13 Q1348.12 1189.13 1348.93 1189.78 Q1349.78 1190.42 1353.38 1190.42 L1354.84 1190.42 L1354.84 1192.56 Q1352.06 1192.36 1346.01 1192.36 Q1345.16 1192.36 1343.84 1192.39 Q1342.55 1192.43 1340.78 1192.5 Q1339.05 1192.56 1338.1 1192.56 L1338.1 1190.42 Q1341.8 1190.42 1342.65 1189.98 Q1343.5 1189.51 1343.5 1187.26 L1343.5 1164.74 L1338.03 1164.74 Z" fill="#ffffff" fill-rule="nonzero" fill-opacity="1" /><path clip-path="url(#clip430)" d="M1381.98 1192.56 L1381.98 1190.42 Q1385.69 1190.42 1386.53 1189.98 Q1387.42 1189.51 1387.42 1187.26 L1387.42 1168.62 Q1387.42 1166.04 1386.5 1165.39 Q1385.62 1164.74 1381.98 1164.74 L1381.98 1162.57 L1391.66 1161.82 L1391.66 1169.47 Q1392.65 1166.48 1394.72 1164.17 Q1396.83 1161.82 1400.22 1161.82 Q1402.47 1161.82 1403.89 1163.08 Q1405.35 1164.34 1405.35 1166.07 Q1405.35 1167.6 1404.4 1168.38 Q1403.48 1169.13 1402.36 1169.13 Q1401.11 1169.13 1400.22 1168.35 Q1399.37 1167.53 1399.37 1166.14 Q1399.37 1165.29 1399.75 1164.64 Q1400.16 1163.96 1400.46 1163.73 Q1400.77 1163.49 1400.97 1163.42 Q1400.83 1163.35 1400.22 1163.35 Q1396.39 1163.35 1394.18 1167.19 Q1392 1170.99 1392 1176.43 L1392 1187.13 Q1392 1189.13 1392.82 1189.78 Q1393.67 1190.42 1397.3 1190.42 L1398.76 1190.42 L1398.76 1192.56 Q1395.98 1192.36 1389.93 1192.36 Q1389.08 1192.36 1387.76 1192.39 Q1386.43 1192.43 1384.7 1192.5 Q1382.97 1192.56 1381.98 1192.56 Z" fill="#ffffff" fill-rule="nonzero" fill-opacity="1" /><path clip-path="url(#clip430)" d="M1410.14 1185.94 Q1410.14 1180.03 1417.11 1176.91 Q1421.28 1174.9 1429.91 1174.39 L1429.91 1171.84 Q1429.91 1167.53 1427.63 1165.25 Q1425.39 1162.94 1422.54 1162.94 Q1417.44 1162.94 1415 1166.14 Q1417.07 1166.21 1417.82 1167.26 Q1418.57 1168.28 1418.57 1169.33 Q1418.57 1170.72 1417.68 1171.64 Q1416.83 1172.52 1415.37 1172.52 Q1413.98 1172.52 1413.06 1171.67 Q1412.15 1170.79 1412.15 1169.26 Q1412.15 1165.87 1415.2 1163.62 Q1418.29 1161.38 1422.68 1161.38 Q1428.38 1161.38 1432.19 1165.22 Q1433.38 1166.41 1433.95 1167.94 Q1434.56 1169.47 1434.63 1170.49 Q1434.7 1171.47 1434.7 1173.44 L1434.7 1187.33 Q1434.7 1187.74 1434.84 1188.42 Q1434.97 1189.1 1435.58 1189.98 Q1436.23 1190.83 1437.28 1190.83 Q1439.8 1190.83 1439.76 1186.38 L1439.76 1182.48 L1441.53 1182.48 L1441.53 1186.38 Q1441.53 1190.08 1439.56 1191.54 Q1437.62 1192.97 1435.82 1192.97 Q1433.51 1192.97 1432.05 1191.27 Q1430.59 1189.57 1430.39 1187.26 Q1429.33 1189.91 1426.92 1191.65 Q1424.54 1193.35 1421.28 1193.35 Q1418.77 1193.35 1416.39 1192.7 Q1414.05 1192.09 1412.08 1190.36 Q1410.14 1188.59 1410.14 1185.94 M1415.51 1185.87 Q1415.51 1188.45 1417.34 1190.12 Q1419.18 1191.78 1421.76 1191.78 Q1424.68 1191.78 1427.3 1189.54 Q1429.91 1187.26 1429.91 1182.82 L1429.91 1175.85 Q1422.2 1176.12 1418.84 1179.21 Q1415.51 1182.27 1415.51 1185.87 Z" fill="#ffffff" fill-rule="nonzero" fill-opacity="1" /><path clip-path="url(#clip430)" d="M1444.24 1192.56 L1444.24 1190.42 Q1447.95 1190.42 1448.8 1189.98 Q1449.65 1189.51 1449.65 1187.26 L1449.65 1168.62 Q1449.65 1166.04 1448.73 1165.39 Q1447.85 1164.74 1444.24 1164.74 L1444.24 1162.57 L1454.03 1161.82 L1454.03 1169.13 Q1457.29 1161.82 1464.32 1161.82 Q1469.55 1161.82 1471.62 1164.41 Q1473.15 1166.14 1473.46 1168.07 Q1473.8 1170.01 1473.8 1175.04 L1473.8 1188.32 Q1473.86 1189.78 1474.99 1190.12 Q1476.11 1190.42 1479.23 1190.42 L1479.23 1192.56 Q1472.13 1192.36 1471.42 1192.36 Q1470.88 1192.36 1463.57 1192.56 L1463.57 1190.42 Q1467.27 1190.42 1468.12 1189.98 Q1469.01 1189.51 1469.01 1187.26 L1469.01 1171.06 Q1469.01 1167.53 1467.92 1165.46 Q1466.83 1163.35 1463.84 1163.35 Q1460.24 1163.35 1457.36 1166.38 Q1454.47 1169.4 1454.47 1174.49 L1454.47 1187.26 Q1454.47 1189.51 1455.32 1189.98 Q1456.2 1190.42 1459.87 1190.42 L1459.87 1192.56 Q1452.77 1192.36 1452.09 1192.36 Q1451.55 1192.36 1444.24 1192.56 Z" fill="#ffffff" fill-rule="nonzero" fill-opacity="1" /><path clip-path="url(#clip430)" d="M1482.53 1192.56 L1482.53 1190.42 Q1486.23 1190.42 1487.08 1189.98 Q1487.96 1189.51 1487.96 1187.26 L1487.96 1151.09 Q1487.96 1148.51 1487.04 1147.86 Q1486.16 1147.22 1482.53 1147.22 L1482.53 1145.04 L1492.55 1144.3 L1492.55 1177.69 L1502.36 1169.19 Q1503.89 1167.87 1503.89 1166.48 Q1503.89 1164.88 1501.89 1164.74 L1501.89 1162.57 Q1504.81 1162.77 1509.67 1162.77 Q1512.52 1162.77 1514.52 1162.57 L1514.52 1164.74 Q1510.14 1164.95 1505.76 1168.48 Q1504.77 1169.26 1502.43 1171.3 Q1500.12 1173.3 1500.12 1173.51 Q1500.12 1173.58 1500.19 1173.75 Q1500.29 1173.92 1500.43 1174.05 Q1500.56 1174.19 1500.56 1174.26 L1509.39 1186.72 Q1511.19 1189.24 1512.52 1189.85 Q1513.84 1190.42 1516.15 1190.42 L1516.15 1192.56 Q1513.16 1192.36 1510.07 1192.36 Q1508.41 1192.36 1502.57 1192.56 L1502.57 1190.42 Q1505.08 1190.42 1505.08 1188.79 Q1505.08 1187.67 1499.44 1179.89 Q1499.03 1179.35 1498.12 1178.16 Q1497.27 1176.91 1496.79 1176.29 L1492.34 1180.1 L1492.34 1187.26 Q1492.34 1189.51 1493.19 1189.98 Q1494.07 1190.42 1497.78 1190.42 L1497.78 1192.56 Q1493.6 1192.36 1490.13 1192.36 Q1489.42 1192.36 1482.53 1192.56 Z" fill="#ffffff" fill-rule="nonzero" fill-opacity="1" /><path clip-path="url(#clip430)" d="M1519.55 1191.65 L1519.55 1182.48 Q1519.55 1181.69 1519.58 1181.42 Q1519.62 1181.15 1519.82 1180.95 Q1520.03 1180.74 1520.43 1180.74 Q1520.91 1180.74 1521.08 1180.95 Q1521.28 1181.15 1521.42 1181.93 Q1522.47 1186.72 1524.71 1189.27 Q1526.99 1191.78 1531.1 1191.78 Q1535 1191.78 1536.98 1190.05 Q1538.95 1188.32 1538.95 1185.46 Q1538.95 1180.37 1531.71 1179.08 Q1527.53 1178.23 1525.8 1177.69 Q1524.07 1177.11 1522.54 1175.85 Q1519.55 1173.41 1519.55 1169.94 Q1519.55 1166.48 1522.17 1163.93 Q1524.81 1161.38 1530.66 1161.38 Q1534.56 1161.38 1537.21 1163.35 Q1537.99 1162.74 1538.4 1162.23 Q1539.32 1161.38 1539.79 1161.38 Q1540.34 1161.38 1540.44 1161.76 Q1540.54 1162.1 1540.54 1163.08 L1540.54 1170.08 Q1540.54 1170.86 1540.51 1171.13 Q1540.47 1171.4 1540.27 1171.61 Q1540.07 1171.78 1539.62 1171.78 Q1538.84 1171.78 1538.81 1171.13 Q1538.27 1162.71 1530.66 1162.71 Q1526.55 1162.71 1524.71 1164.3 Q1522.88 1165.87 1522.88 1168.01 Q1522.88 1169.19 1523.42 1170.11 Q1524 1170.99 1524.71 1171.54 Q1525.46 1172.05 1526.82 1172.56 Q1528.18 1173.03 1528.99 1173.2 Q1529.84 1173.37 1531.44 1173.71 Q1537.01 1174.77 1539.35 1177.04 Q1542.27 1179.96 1542.27 1183.66 Q1542.27 1187.77 1539.49 1190.56 Q1536.7 1193.35 1531.1 1193.35 Q1526.58 1193.35 1523.42 1190.32 Q1523.01 1190.73 1522.71 1191.1 Q1522.4 1191.44 1522.27 1191.58 Q1522.17 1191.71 1522.13 1191.82 Q1522.1 1191.88 1522.03 1191.95 Q1520.64 1193.35 1520.3 1193.35 Q1519.75 1193.35 1519.65 1192.97 Q1519.55 1192.63 1519.55 1191.65 Z" fill="#ffffff" fill-rule="nonzero" fill-opacity="1" /><polyline clip-path="url(#clip432)" style="stroke:#adb2b7; stroke-linecap:round; stroke-linejoin:round; stroke-width:2; stroke-opacity:0.1; fill:none" points="224.323,1047.7 2352.76,1047.7 "/>
<polyline clip-path="url(#clip432)" style="stroke:#adb2b7; stroke-linecap:round; stroke-linejoin:round; stroke-width:2; stroke-opacity:0.1; fill:none" points="224.323,820.324 2352.76,820.324 "/>
<polyline clip-path="url(#clip432)" style="stroke:#adb2b7; stroke-linecap:round; stroke-linejoin:round; stroke-width:2; stroke-opacity:0.1; fill:none" points="224.323,592.947 2352.76,592.947 "/>
<polyline clip-path="url(#clip432)" style="stroke:#adb2b7; stroke-linecap:round; stroke-linejoin:round; stroke-width:2; stroke-opacity:0.1; fill:none" points="224.323,365.571 2352.76,365.571 "/>
<polyline clip-path="url(#clip432)" style="stroke:#adb2b7; stroke-linecap:round; stroke-linejoin:round; stroke-width:2; stroke-opacity:0.1; fill:none" points="224.323,138.195 2352.76,138.195 "/>
<polyline clip-path="url(#clip430)" style="stroke:#adb2b7; stroke-linecap:round; stroke-linejoin:round; stroke-width:4; stroke-opacity:1; fill:none" points="224.323,1047.7 224.323,47.2441 "/>
<polyline clip-path="url(#clip430)" style="stroke:#adb2b7; stroke-linecap:round; stroke-linejoin:round; stroke-width:4; stroke-opacity:1; fill:none" points="2352.76,1047.7 2352.76,47.2441 "/>
<polyline clip-path="url(#clip430)" style="stroke:#adb2b7; stroke-linecap:round; stroke-linejoin:round; stroke-width:4; stroke-opacity:1; fill:none" points="224.323,1047.7 243.221,1047.7 "/>
<polyline clip-path="url(#clip430)" style="stroke:#adb2b7; stroke-linecap:round; stroke-linejoin:round; stroke-width:4; stroke-opacity:1; fill:none" points="224.323,820.324 243.221,820.324 "/>
<polyline clip-path="url(#clip430)" style="stroke:#adb2b7; stroke-linecap:round; stroke-linejoin:round; stroke-width:4; stroke-opacity:1; fill:none" points="224.323,592.947 243.221,592.947 "/>
<polyline clip-path="url(#clip430)" style="stroke:#adb2b7; stroke-linecap:round; stroke-linejoin:round; stroke-width:4; stroke-opacity:1; fill:none" points="224.323,365.571 243.221,365.571 "/>
<polyline clip-path="url(#clip430)" style="stroke:#adb2b7; stroke-linecap:round; stroke-linejoin:round; stroke-width:4; stroke-opacity:1; fill:none" points="224.323,138.195 243.221,138.195 "/>
<path clip-path="url(#clip430)" d="M102.38 1048.8 Q102.38 1041.36 104.258 1037.31 Q106.876 1031.28 113.052 1031.28 Q114.361 1031.28 115.72 1031.66 Q117.103 1032 118.833 1033.36 Q120.587 1034.72 121.649 1036.94 Q123.674 1041.24 123.674 1048.8 Q123.674 1056.19 121.797 1060.21 Q119.055 1066.09 113.003 1066.09 Q110.73 1066.09 108.408 1064.93 Q106.11 1063.77 104.653 1060.98 Q102.38 1056.8 102.38 1048.8 M106.58 1048.18 Q106.58 1055.81 107.123 1058.85 Q107.741 1062.14 109.421 1063.57 Q111.125 1064.98 113.003 1064.98 Q115.028 1064.98 116.708 1063.47 Q118.413 1061.94 118.931 1058.66 Q119.5 1055.42 119.475 1048.18 Q119.475 1041.14 118.981 1038.32 Q118.314 1035.04 116.535 1033.73 Q114.781 1032.4 113.003 1032.4 Q112.336 1032.4 111.619 1032.59 Q110.928 1032.79 109.915 1033.36 Q108.902 1033.93 108.111 1035.34 Q107.346 1036.74 106.975 1038.87 Q106.58 1041.61 106.58 1048.18 Z" fill="#ffffff" fill-rule="nonzero" fill-opacity="1" /><path clip-path="url(#clip430)" d="M130.764 1064.16 Q129.999 1063.35 129.999 1062.29 Q129.999 1061.22 130.764 1060.46 Q131.53 1059.67 132.691 1059.67 Q133.803 1059.67 134.544 1060.41 Q135.31 1061.13 135.31 1062.31 Q135.31 1063.47 134.495 1064.24 Q133.704 1064.98 132.691 1064.98 Q131.53 1064.98 130.764 1064.16 Z" fill="#ffffff" fill-rule="nonzero" fill-opacity="1" /><path clip-path="url(#clip430)" d="M141.733 1048.8 Q141.733 1041.36 143.61 1037.31 Q146.229 1031.28 152.404 1031.28 Q153.714 1031.28 155.072 1031.66 Q156.456 1032 158.185 1033.36 Q159.939 1034.72 161.001 1036.94 Q163.027 1041.24 163.027 1048.8 Q163.027 1056.19 161.149 1060.21 Q158.407 1066.09 152.355 1066.09 Q150.082 1066.09 147.76 1064.93 Q145.463 1063.77 144.005 1060.98 Q141.733 1056.8 141.733 1048.8 M145.932 1048.18 Q145.932 1055.81 146.476 1058.85 Q147.093 1062.14 148.773 1063.57 Q150.478 1064.98 152.355 1064.98 Q154.381 1064.98 156.061 1063.47 Q157.765 1061.94 158.284 1058.66 Q158.852 1055.42 158.827 1048.18 Q158.827 1041.14 158.333 1038.32 Q157.666 1035.04 155.888 1033.73 Q154.134 1032.4 152.355 1032.4 Q151.688 1032.4 150.972 1032.59 Q150.28 1032.79 149.267 1033.36 Q148.254 1033.93 147.464 1035.34 Q146.698 1036.74 146.327 1038.87 Q145.932 1041.61 145.932 1048.18 Z" fill="#ffffff" fill-rule="nonzero" fill-opacity="1" /><path clip-path="url(#clip430)" d="M167.029 1048.8 Q167.029 1041.36 168.906 1037.31 Q171.525 1031.28 177.701 1031.28 Q179.01 1031.28 180.369 1031.66 Q181.752 1032 183.481 1033.36 Q185.235 1034.72 186.297 1036.94 Q188.323 1041.24 188.323 1048.8 Q188.323 1056.19 186.446 1060.21 Q183.704 1066.09 177.651 1066.09 Q175.379 1066.09 173.056 1064.93 Q170.759 1063.77 169.302 1060.98 Q167.029 1056.8 167.029 1048.8 M171.228 1048.18 Q171.228 1055.81 171.772 1058.85 Q172.389 1062.14 174.069 1063.57 Q175.774 1064.98 177.651 1064.98 Q179.677 1064.98 181.357 1063.47 Q183.061 1061.94 183.58 1058.66 Q184.148 1055.42 184.124 1048.18 Q184.124 1041.14 183.63 1038.32 Q182.963 1035.04 181.184 1033.73 Q179.43 1032.4 177.651 1032.4 Q176.984 1032.4 176.268 1032.59 Q175.576 1032.79 174.563 1033.36 Q173.551 1033.93 172.76 1035.34 Q171.994 1036.74 171.624 1038.87 Q171.228 1041.61 171.228 1048.18 Z" fill="#ffffff" fill-rule="nonzero" fill-opacity="1" /><path clip-path="url(#clip430)" d="M102.924 821.423 Q102.924 813.987 104.801 809.936 Q107.42 803.908 113.595 803.908 Q114.905 803.908 116.263 804.279 Q117.647 804.625 119.376 805.983 Q121.13 807.342 122.192 809.565 Q124.218 813.864 124.218 821.423 Q124.218 828.809 122.34 832.836 Q119.598 838.715 113.546 838.715 Q111.273 838.715 108.951 837.554 Q106.654 836.393 105.196 833.602 Q102.924 829.427 102.924 821.423 M107.123 820.805 Q107.123 828.439 107.667 831.477 Q108.284 834.763 109.964 836.195 Q111.669 837.604 113.546 837.604 Q115.572 837.604 117.252 836.097 Q118.956 834.565 119.475 831.279 Q120.043 828.043 120.018 820.805 Q120.018 813.765 119.524 810.949 Q118.857 807.663 117.079 806.354 Q115.325 805.02 113.546 805.02 Q112.879 805.02 112.163 805.217 Q111.471 805.415 110.458 805.983 Q109.445 806.551 108.655 807.96 Q107.889 809.368 107.518 811.492 Q107.123 814.234 107.123 820.805 Z" fill="#ffffff" fill-rule="nonzero" fill-opacity="1" /><path clip-path="url(#clip430)" d="M131.308 836.788 Q130.542 835.973 130.542 834.911 Q130.542 833.849 131.308 833.083 Q132.074 832.292 133.235 832.292 Q134.346 832.292 135.087 833.033 Q135.853 833.75 135.853 834.936 Q135.853 836.097 135.038 836.862 Q134.247 837.604 133.235 837.604 Q132.074 837.604 131.308 836.788 Z" fill="#ffffff" fill-rule="nonzero" fill-opacity="1" /><path clip-path="url(#clip430)" d="M142.82 837.604 Q142.82 836.69 142.894 836.418 Q142.992 836.146 143.388 835.726 L153.096 824.906 Q158.407 818.928 158.407 813.715 Q158.407 810.331 156.629 807.91 Q154.875 805.489 151.639 805.489 Q149.415 805.489 147.538 806.848 Q145.66 808.207 144.796 810.627 Q144.944 810.578 145.463 810.578 Q146.723 810.578 147.414 811.369 Q148.131 812.159 148.131 813.221 Q148.131 814.58 147.241 815.247 Q146.377 815.889 145.512 815.889 Q145.166 815.889 144.697 815.815 Q144.252 815.741 143.536 815.049 Q142.82 814.333 142.82 813.073 Q142.82 809.541 145.488 806.724 Q148.18 803.908 152.281 803.908 Q156.925 803.908 159.964 806.675 Q163.027 809.417 163.027 813.715 Q163.027 815.222 162.558 816.606 Q162.113 817.964 161.495 819.027 Q160.902 820.089 159.272 821.793 Q157.642 823.498 156.332 824.708 Q155.023 825.919 152.083 828.488 L146.723 833.7 L155.838 833.7 Q160.285 833.7 160.631 833.305 Q161.125 832.589 161.742 828.809 L163.027 828.809 L161.594 837.604 L142.82 837.604 Z" fill="#ffffff" fill-rule="nonzero" fill-opacity="1" /><path clip-path="url(#clip430)" d="M168.116 829.451 Q168.116 827.945 168.931 827.376 Q169.746 826.783 170.611 826.783 Q171.772 826.783 172.439 827.525 Q173.131 828.241 173.131 829.254 Q173.131 830.267 172.439 831.008 Q171.772 831.724 170.611 831.724 Q170.043 831.724 169.746 831.625 Q170.413 833.947 172.439 835.627 Q174.489 837.307 177.182 837.307 Q180.566 837.307 182.592 834.022 Q183.802 831.897 183.802 827.08 Q183.802 822.831 182.888 820.706 Q181.48 817.47 178.59 817.47 Q174.489 817.47 172.068 821.003 Q171.772 821.448 171.426 821.472 Q170.932 821.472 170.808 821.201 Q170.71 820.904 170.71 820.138 L170.71 805.168 Q170.71 803.958 171.204 803.958 Q171.401 803.958 171.821 804.106 Q175.008 805.514 178.541 805.539 Q182.172 805.539 185.433 804.056 Q185.68 803.908 185.828 803.908 Q186.322 803.908 186.347 804.476 Q186.347 804.674 185.927 805.267 Q185.532 805.835 184.667 806.601 Q183.802 807.342 182.691 808.058 Q181.579 808.775 179.949 809.269 Q178.343 809.738 176.564 809.738 Q174.44 809.738 172.266 809.071 L172.266 818.928 Q174.885 816.359 178.689 816.359 Q182.74 816.359 185.532 819.619 Q188.323 822.88 188.323 827.426 Q188.323 832.194 185.013 835.454 Q181.727 838.715 177.281 838.715 Q173.229 838.715 170.66 835.825 Q168.116 832.935 168.116 829.451 Z" fill="#ffffff" fill-rule="nonzero" fill-opacity="1" /><path clip-path="url(#clip430)" d="M102.38 594.047 Q102.38 586.611 104.258 582.559 Q106.876 576.532 113.052 576.532 Q114.361 576.532 115.72 576.902 Q117.103 577.248 118.833 578.607 Q120.587 579.966 121.649 582.189 Q123.674 586.487 123.674 594.047 Q123.674 601.433 121.797 605.459 Q119.055 611.339 113.003 611.339 Q110.73 611.339 108.408 610.178 Q106.11 609.017 104.653 606.225 Q102.38 602.05 102.38 594.047 M106.58 593.429 Q106.58 601.062 107.123 604.101 Q107.741 607.386 109.421 608.819 Q111.125 610.227 113.003 610.227 Q115.028 610.227 116.708 608.72 Q118.413 607.189 118.931 603.903 Q119.5 600.667 119.475 593.429 Q119.475 586.388 118.981 583.572 Q118.314 580.287 116.535 578.977 Q114.781 577.643 113.003 577.643 Q112.336 577.643 111.619 577.841 Q110.928 578.039 109.915 578.607 Q108.902 579.175 108.111 580.583 Q107.346 581.991 106.975 584.116 Q106.58 586.858 106.58 593.429 Z" fill="#ffffff" fill-rule="nonzero" fill-opacity="1" /><path clip-path="url(#clip430)" d="M130.764 609.412 Q129.999 608.597 129.999 607.535 Q129.999 606.472 130.764 605.707 Q131.53 604.916 132.691 604.916 Q133.803 604.916 134.544 605.657 Q135.31 606.374 135.31 607.559 Q135.31 608.72 134.495 609.486 Q133.704 610.227 132.691 610.227 Q131.53 610.227 130.764 609.412 Z" fill="#ffffff" fill-rule="nonzero" fill-opacity="1" /><path clip-path="url(#clip430)" d="M142.276 602.075 Q142.276 600.568 143.091 600 Q143.907 599.407 144.771 599.407 Q145.932 599.407 146.599 600.148 Q147.291 600.865 147.291 601.877 Q147.291 602.89 146.599 603.631 Q145.932 604.348 144.771 604.348 Q144.203 604.348 143.907 604.249 Q144.573 606.571 146.599 608.251 Q148.65 609.931 151.342 609.931 Q154.727 609.931 156.752 606.645 Q157.963 604.521 157.963 599.704 Q157.963 595.455 157.049 593.33 Q155.641 590.094 152.75 590.094 Q148.65 590.094 146.229 593.627 Q145.932 594.071 145.586 594.096 Q145.092 594.096 144.969 593.824 Q144.87 593.528 144.87 592.762 L144.87 577.792 Q144.87 576.581 145.364 576.581 Q145.562 576.581 145.982 576.729 Q149.168 578.138 152.701 578.162 Q156.332 578.162 159.593 576.68 Q159.84 576.532 159.988 576.532 Q160.482 576.532 160.507 577.1 Q160.507 577.298 160.087 577.891 Q159.692 578.459 158.827 579.225 Q157.963 579.966 156.851 580.682 Q155.739 581.398 154.109 581.892 Q152.503 582.362 150.725 582.362 Q148.6 582.362 146.426 581.695 L146.426 591.551 Q149.045 588.982 152.849 588.982 Q156.9 588.982 159.692 592.243 Q162.483 595.504 162.483 600.049 Q162.483 604.817 159.173 608.078 Q155.888 611.339 151.441 611.339 Q147.39 611.339 144.821 608.449 Q142.276 605.558 142.276 602.075 Z" fill="#ffffff" fill-rule="nonzero" fill-opacity="1" /><path clip-path="url(#clip430)" d="M167.029 594.047 Q167.029 586.611 168.906 582.559 Q171.525 576.532 177.701 576.532 Q179.01 576.532 180.369 576.902 Q181.752 577.248 183.481 578.607 Q185.235 579.966 186.297 582.189 Q188.323 586.487 188.323 594.047 Q188.323 601.433 186.446 605.459 Q183.704 611.339 177.651 611.339 Q175.379 611.339 173.056 610.178 Q170.759 609.017 169.302 606.225 Q167.029 602.05 167.029 594.047 M171.228 593.429 Q171.228 601.062 171.772 604.101 Q172.389 607.386 174.069 608.819 Q175.774 610.227 177.651 610.227 Q179.677 610.227 181.357 608.72 Q183.061 607.189 183.58 603.903 Q184.148 600.667 184.124 593.429 Q184.124 586.388 183.63 583.572 Q182.963 580.287 181.184 578.977 Q179.43 577.643 177.651 577.643 Q176.984 577.643 176.268 577.841 Q175.576 578.039 174.563 578.607 Q173.551 579.175 172.76 580.583 Q171.994 581.991 171.624 584.116 Q171.228 586.858 171.228 593.429 Z" fill="#ffffff" fill-rule="nonzero" fill-opacity="1" /><path clip-path="url(#clip430)" d="M102.924 366.67 Q102.924 359.235 104.801 355.183 Q107.42 349.156 113.595 349.156 Q114.905 349.156 116.263 349.526 Q117.647 349.872 119.376 351.231 Q121.13 352.589 122.192 354.813 Q124.218 359.111 124.218 366.67 Q124.218 374.057 122.34 378.083 Q119.598 383.963 113.546 383.963 Q111.273 383.963 108.951 382.802 Q106.654 381.64 105.196 378.849 Q102.924 374.674 102.924 366.67 M107.123 366.053 Q107.123 373.686 107.667 376.724 Q108.284 380.01 109.964 381.443 Q111.669 382.851 113.546 382.851 Q115.572 382.851 117.252 381.344 Q118.956 379.812 119.475 376.527 Q120.043 373.291 120.018 366.053 Q120.018 359.012 119.524 356.196 Q118.857 352.91 117.079 351.601 Q115.325 350.267 113.546 350.267 Q112.879 350.267 112.163 350.465 Q111.471 350.662 110.458 351.231 Q109.445 351.799 108.655 353.207 Q107.889 354.615 107.518 356.739 Q107.123 359.482 107.123 366.053 Z" fill="#ffffff" fill-rule="nonzero" fill-opacity="1" /><path clip-path="url(#clip430)" d="M131.308 382.036 Q130.542 381.221 130.542 380.158 Q130.542 379.096 131.308 378.33 Q132.074 377.54 133.235 377.54 Q134.346 377.54 135.087 378.281 Q135.853 378.997 135.853 380.183 Q135.853 381.344 135.038 382.11 Q134.247 382.851 133.235 382.851 Q132.074 382.851 131.308 382.036 Z" fill="#ffffff" fill-rule="nonzero" fill-opacity="1" /><path clip-path="url(#clip430)" d="M143.141 359.062 L144.796 348.661 L146.056 348.661 Q146.204 349.279 146.451 349.551 Q146.723 349.823 148.155 350.045 Q149.613 350.267 152.553 350.267 L164.83 350.267 Q164.83 351.428 164.386 352.046 L157.543 361.655 Q155.369 364.694 154.405 370.302 Q153.837 374.057 153.862 378.602 L153.862 381.171 Q153.862 383.963 151.515 383.963 Q149.193 383.963 149.193 381.171 Q149.193 371.512 155.418 362.15 Q156.085 361.186 158.531 357.752 Q161.001 354.319 161.1 354.17 L150.626 354.17 Q146.031 354.17 145.66 354.467 Q145.166 354.911 144.401 359.062 L143.141 359.062 Z" fill="#ffffff" fill-rule="nonzero" fill-opacity="1" /><path clip-path="url(#clip430)" d="M168.116 374.699 Q168.116 373.192 168.931 372.624 Q169.746 372.031 170.611 372.031 Q171.772 372.031 172.439 372.772 Q173.131 373.488 173.131 374.501 Q173.131 375.514 172.439 376.255 Q171.772 376.972 170.611 376.972 Q170.043 376.972 169.746 376.873 Q170.413 379.195 172.439 380.875 Q174.489 382.554 177.182 382.554 Q180.566 382.554 182.592 379.269 Q183.802 377.144 183.802 372.327 Q183.802 368.078 182.888 365.954 Q181.48 362.718 178.59 362.718 Q174.489 362.718 172.068 366.25 Q171.772 366.695 171.426 366.72 Q170.932 366.72 170.808 366.448 Q170.71 366.151 170.71 365.386 L170.71 350.415 Q170.71 349.205 171.204 349.205 Q171.401 349.205 171.821 349.353 Q175.008 350.761 178.541 350.786 Q182.172 350.786 185.433 349.304 Q185.68 349.156 185.828 349.156 Q186.322 349.156 186.347 349.724 Q186.347 349.921 185.927 350.514 Q185.532 351.082 184.667 351.848 Q183.802 352.589 182.691 353.306 Q181.579 354.022 179.949 354.516 Q178.343 354.986 176.564 354.986 Q174.44 354.986 172.266 354.319 L172.266 364.175 Q174.885 361.606 178.689 361.606 Q182.74 361.606 185.532 364.867 Q188.323 368.128 188.323 372.673 Q188.323 377.441 185.013 380.702 Q181.727 383.963 177.281 383.963 Q173.229 383.963 170.66 381.072 Q168.116 378.182 168.116 374.699 Z" fill="#ffffff" fill-rule="nonzero" fill-opacity="1" /><path clip-path="url(#clip430)" d="M104.9 126.596 L104.9 125.015 Q110.977 125.015 114.114 121.779 Q114.979 121.779 115.127 121.977 Q115.275 122.174 115.275 123.089 L115.275 151.473 Q115.275 152.98 116.016 153.449 Q116.758 153.918 119.994 153.918 L121.599 153.918 L121.599 155.475 Q119.821 155.326 113.398 155.326 Q106.975 155.326 105.221 155.475 L105.221 153.918 L106.827 153.918 Q110.013 153.918 110.779 153.474 Q111.545 153.004 111.545 151.473 L111.545 125.262 Q108.902 126.596 104.9 126.596 Z" fill="#ffffff" fill-rule="nonzero" fill-opacity="1" /><path clip-path="url(#clip430)" d="M130.764 154.659 Q129.999 153.844 129.999 152.782 Q129.999 151.72 130.764 150.954 Q131.53 150.163 132.691 150.163 Q133.803 150.163 134.544 150.904 Q135.31 151.621 135.31 152.807 Q135.31 153.968 134.495 154.734 Q133.704 155.475 132.691 155.475 Q131.53 155.475 130.764 154.659 Z" fill="#ffffff" fill-rule="nonzero" fill-opacity="1" /><path clip-path="url(#clip430)" d="M141.733 139.294 Q141.733 131.858 143.61 127.807 Q146.229 121.779 152.404 121.779 Q153.714 121.779 155.072 122.15 Q156.456 122.496 158.185 123.854 Q159.939 125.213 161.001 127.436 Q163.027 131.735 163.027 139.294 Q163.027 146.68 161.149 150.707 Q158.407 156.586 152.355 156.586 Q150.082 156.586 147.76 155.425 Q145.463 154.264 144.005 151.473 Q141.733 147.298 141.733 139.294 M145.932 138.676 Q145.932 146.31 146.476 149.348 Q147.093 152.634 148.773 154.067 Q150.478 155.475 152.355 155.475 Q154.381 155.475 156.061 153.968 Q157.765 152.436 158.284 149.151 Q158.852 145.914 158.827 138.676 Q158.827 131.636 158.333 128.82 Q157.666 125.534 155.888 124.225 Q154.134 122.891 152.355 122.891 Q151.688 122.891 150.972 123.089 Q150.28 123.286 149.267 123.854 Q148.254 124.422 147.464 125.831 Q146.698 127.239 146.327 129.363 Q145.932 132.105 145.932 138.676 Z" fill="#ffffff" fill-rule="nonzero" fill-opacity="1" /><path clip-path="url(#clip430)" d="M167.029 139.294 Q167.029 131.858 168.906 127.807 Q171.525 121.779 177.701 121.779 Q179.01 121.779 180.369 122.15 Q181.752 122.496 183.481 123.854 Q185.235 125.213 186.297 127.436 Q188.323 131.735 188.323 139.294 Q188.323 146.68 186.446 150.707 Q183.704 156.586 177.651 156.586 Q175.379 156.586 173.056 155.425 Q170.759 154.264 169.302 151.473 Q167.029 147.298 167.029 139.294 M171.228 138.676 Q171.228 146.31 171.772 149.348 Q172.389 152.634 174.069 154.067 Q175.774 155.475 177.651 155.475 Q179.677 155.475 181.357 153.968 Q183.061 152.436 183.58 149.151 Q184.148 145.914 184.124 138.676 Q184.124 131.636 183.63 128.82 Q182.963 125.534 181.184 124.225 Q179.43 122.891 177.651 122.891 Q176.984 122.891 176.268 123.089 Q175.576 123.286 174.563 123.854 Q173.551 124.422 172.76 125.831 Q171.994 127.239 171.624 129.363 Q171.228 132.105 171.228 138.676 Z" fill="#ffffff" fill-rule="nonzero" fill-opacity="1" /><path clip-path="url(#clip430)" d="M6.77805 895.584 L4.60416 895.584 Q4.60416 894.599 4.67209 892.833 Q4.74003 891.066 4.77399 889.674 Q4.80796 888.281 4.80796 887.092 Q4.80796 879.721 4.60416 877.208 L6.77805 877.208 Q6.77805 883.05 8.85005 883.05 Q9.32559 883.05 9.76716 882.914 L43.972 871.739 L14.1489 862.058 L9.25765 863.587 Q7.52533 864.13 7.15169 865.319 Q6.77805 866.508 6.77805 869.837 L4.60416 869.837 Q4.60416 868.852 4.67209 867.086 Q4.74003 865.319 4.77399 863.927 Q4.80796 862.534 4.80796 861.379 Q4.80796 854.008 4.60416 851.495 L6.77805 851.495 Q6.77805 857.337 8.85005 857.337 Q9.05385 857.337 9.90303 857.133 L43.972 845.992 L11.8392 835.564 Q10.7862 835.224 10.4465 835.19 Q9.18972 835.19 8.03484 836.651 Q6.84599 838.112 6.77805 841.271 L4.60416 841.271 Q4.80796 835.836 4.80796 832.983 Q4.80796 829.79 4.60416 826.665 L6.77805 826.665 Q6.77805 832.167 11.4315 833.594 L52.26 846.909 Q52.8035 847.045 53.0413 847.147 Q53.313 847.249 53.4828 847.521 Q53.6527 847.792 53.6527 848.268 Q53.6527 849.185 52.328 849.593 L16.9342 861.141 L52.26 872.622 Q52.8035 872.758 53.0413 872.894 Q53.313 872.996 53.4828 873.268 Q53.6527 873.539 53.6527 874.015 Q53.6527 874.932 52.328 875.34 L9.69923 889.266 Q7.69517 889.878 7.25359 890.829 Q6.77805 891.746 6.77805 895.584 Z" fill="#ffffff" fill-rule="nonzero" fill-opacity="1" /><path clip-path="url(#clip430)" d="M36.805 829.246 Q30.2493 829.246 25.5958 825.034 Q20.9423 820.822 20.9423 814.776 Q20.9423 808.662 24.9165 805.503 Q28.8906 802.31 34.5971 802.31 Q35.6501 802.31 35.8539 802.582 Q36.0577 802.854 36.0577 804.043 L36.0577 823.472 Q43.1568 823.472 46.4856 821.366 Q51.1391 818.445 51.1391 813.519 Q51.1391 812.84 51.0032 812.025 Q50.8674 811.21 50.2899 809.545 Q49.6785 807.881 48.0821 806.42 Q46.4856 804.96 43.972 804.111 Q42.987 803.907 43.021 803.227 Q43.021 802.31 43.8362 802.31 Q44.4476 802.31 45.8402 802.99 Q47.1989 803.635 48.8293 804.892 Q50.4598 806.149 51.6826 808.594 Q52.9054 811.006 52.9054 813.927 Q52.9054 820.041 48.2859 824.661 Q43.6324 829.246 36.805 829.246 M34.5971 823.404 L34.5971 806.896 Q33.1365 806.896 31.5061 807.168 Q29.8757 807.405 27.6339 808.153 Q25.3581 808.866 23.9314 810.564 Q22.5048 812.263 22.5048 814.776 Q22.5048 815.897 22.9804 817.12 Q23.4559 818.309 24.6108 819.769 Q25.7657 821.23 28.3811 822.249 Q30.9966 823.268 34.5971 823.404 Z" fill="#ffffff" fill-rule="nonzero" fill-opacity="1" /><path clip-path="url(#clip430)" d="M45.5006 797.385 Q39.5903 797.385 36.4653 790.422 Q34.4613 786.244 33.9517 777.616 L31.4042 777.616 Q27.0904 777.616 24.8146 779.892 Q22.5048 782.134 22.5048 784.987 Q22.5048 790.082 25.6977 792.528 Q25.7657 790.456 26.8187 789.708 Q27.8377 788.961 28.8906 788.961 Q30.2833 788.961 31.2004 789.844 Q32.0836 790.694 32.0836 792.154 Q32.0836 793.547 31.2344 794.464 Q30.3512 795.381 28.8227 795.381 Q25.426 795.381 23.1842 792.324 Q20.9423 789.233 20.9423 784.851 Q20.9423 779.145 24.7806 775.34 Q25.9695 774.152 27.498 773.574 Q29.0265 772.963 30.0455 772.895 Q31.0306 772.827 33.0007 772.827 L46.8932 772.827 Q47.3008 772.827 47.9802 772.691 Q48.6595 772.555 49.5427 771.944 Q50.3918 771.298 50.3918 770.245 Q50.3918 767.732 45.9421 767.766 L42.0359 767.766 L42.0359 765.999 L45.9421 765.999 Q49.6446 765.999 51.1051 767.97 Q52.5318 769.906 52.5318 771.706 Q52.5318 774.016 50.8334 775.476 Q49.1351 776.937 46.8253 777.141 Q49.4747 778.194 51.207 780.605 Q52.9054 782.983 52.9054 786.244 Q52.9054 788.757 52.26 791.135 Q51.6486 793.479 49.9163 795.449 Q48.15 797.385 45.5006 797.385 M45.4326 792.018 Q48.0141 792.018 49.6785 790.184 Q51.3429 788.35 51.3429 785.768 Q51.3429 782.847 49.1011 780.232 Q46.8253 777.616 42.3756 777.616 L35.4123 777.616 Q35.6841 785.327 38.7751 788.689 Q41.8321 792.018 45.4326 792.018 Z" fill="#ffffff" fill-rule="nonzero" fill-opacity="1" /><path clip-path="url(#clip430)" d="M52.1242 763.588 L49.9842 763.588 Q49.9842 759.885 49.5427 759.036 Q49.0671 758.153 46.8253 758.153 L10.6503 758.153 Q8.0688 758.153 7.42343 759.07 Q6.77805 759.953 6.77805 763.588 L4.60416 763.588 L3.85688 753.567 L37.2466 753.567 L28.7548 743.751 Q27.4301 742.222 26.0374 742.222 Q24.441 742.222 24.3051 744.227 L22.1312 744.227 Q22.335 741.305 22.335 736.448 Q22.335 733.595 22.1312 731.591 L24.3051 731.591 Q24.5089 735.972 28.0415 740.354 Q28.8227 741.339 30.8607 743.683 Q32.8648 745.993 33.0686 745.993 Q33.1365 745.993 33.3064 745.925 Q33.4762 745.823 33.6121 745.687 Q33.7479 745.551 33.8159 745.551 L46.2818 736.72 Q48.7954 734.92 49.4068 733.595 Q49.9842 732.27 49.9842 729.96 L52.1242 729.96 Q51.9204 732.949 51.9204 736.04 Q51.9204 737.705 52.1242 743.547 L49.9842 743.547 Q49.9842 741.034 48.3538 741.034 Q47.2329 741.034 39.4544 746.672 Q38.9109 747.08 37.7221 747.997 Q36.4653 748.846 35.8539 749.322 L39.6582 753.771 L46.8253 753.771 Q49.0671 753.771 49.5427 752.922 Q49.9842 752.039 49.9842 748.337 L52.1242 748.337 Q51.9204 752.514 51.9204 755.979 Q51.9204 756.692 52.1242 763.588 Z" fill="#ffffff" fill-rule="nonzero" fill-opacity="1" /><path clip-path="url(#clip430)" d="M51.207 703.432 L42.0359 703.432 Q41.2547 703.432 40.9829 703.398 Q40.7112 703.364 40.5074 703.16 Q40.3036 702.956 40.3036 702.549 Q40.3036 702.073 40.5074 701.903 Q40.7112 701.7 41.4924 701.564 Q46.2818 700.511 48.8293 698.269 Q51.3429 695.993 51.3429 691.883 Q51.3429 687.977 49.6106 686.007 Q47.8783 684.037 45.025 684.037 Q39.93 684.037 38.6392 691.272 Q37.79 695.45 37.2466 697.182 Q36.6691 698.914 35.4123 700.443 Q32.9667 703.432 29.5021 703.432 Q26.0374 703.432 23.4899 700.817 Q20.9423 698.167 20.9423 692.325 Q20.9423 688.419 22.9124 685.769 Q22.301 684.988 21.7915 684.58 Q20.9423 683.663 20.9423 683.188 Q20.9423 682.644 21.316 682.542 Q21.6557 682.44 22.6407 682.44 L29.6379 682.44 Q30.4192 682.44 30.6909 682.474 Q30.9626 682.508 31.1664 682.712 Q31.3363 682.916 31.3363 683.357 Q31.3363 684.139 30.6909 684.173 Q22.2671 684.716 22.2671 692.325 Q22.2671 696.435 23.8635 698.269 Q25.426 700.103 27.5659 700.103 Q28.7548 700.103 29.6719 699.56 Q30.555 698.982 31.0985 698.269 Q31.608 697.522 32.1175 696.163 Q32.5931 694.804 32.7629 693.989 Q32.9327 693.14 33.2724 691.544 Q34.3254 685.973 36.6012 683.629 Q39.5224 680.708 43.2248 680.708 Q47.3348 680.708 50.1201 683.493 Q52.9054 686.279 52.9054 691.883 Q52.9054 696.401 49.8823 699.56 Q50.2899 699.967 50.6636 700.273 Q51.0032 700.579 51.1391 700.715 Q51.275 700.817 51.3769 700.85 Q51.4448 700.884 51.5127 700.952 Q52.9054 702.345 52.9054 702.685 Q52.9054 703.228 52.5318 703.33 Q52.1921 703.432 51.207 703.432 Z" fill="#ffffff" fill-rule="nonzero" fill-opacity="1" /><path clip-path="url(#clip430)" d="M48.3198 671.571 Q43.7003 675.987 37.1107 675.987 Q30.4871 675.987 25.7317 671.639 Q20.9423 667.291 20.9423 660.905 Q20.9423 656.659 22.9804 653.466 Q24.9844 650.273 28.4151 650.273 Q29.9436 650.273 30.8268 651.191 Q31.676 652.074 31.676 653.466 Q31.676 654.927 30.7928 655.81 Q29.8757 656.659 28.483 656.659 Q27.8716 656.659 27.2602 656.455 Q26.6488 656.252 26.0034 655.504 Q25.3581 654.723 25.2562 653.398 Q22.7086 655.878 22.7086 660.701 Q22.7086 660.769 22.7086 660.837 Q22.7086 664.37 26.0374 667.291 Q29.3662 670.212 36.9748 670.212 Q40.949 670.212 43.8701 669.261 Q46.7574 668.276 48.2519 666.68 Q49.7465 665.083 50.4598 663.521 Q51.1391 661.958 51.1391 660.43 Q51.1391 653.602 43.8362 651.292 Q43.1568 651.089 43.1568 650.409 Q43.1568 649.492 43.8362 649.492 Q44.1759 649.492 45.059 649.764 Q45.9421 650.036 47.3348 650.885 Q48.7274 651.734 49.9503 652.957 Q51.1391 654.146 52.0223 656.286 Q52.9054 658.392 52.9054 661.041 Q52.9054 667.155 48.3198 671.571 Z" fill="#ffffff" fill-rule="nonzero" fill-opacity="1" /><path clip-path="url(#clip430)" d="M45.5006 644.567 Q39.5903 644.567 36.4653 637.604 Q34.4613 633.426 33.9517 624.798 L31.4042 624.798 Q27.0904 624.798 24.8146 627.074 Q22.5048 629.316 22.5048 632.169 Q22.5048 637.264 25.6977 639.71 Q25.7657 637.638 26.8187 636.89 Q27.8377 636.143 28.8906 636.143 Q30.2833 636.143 31.2004 637.026 Q32.0836 637.875 32.0836 639.336 Q32.0836 640.729 31.2344 641.646 Q30.3512 642.563 28.8227 642.563 Q25.426 642.563 23.1842 639.506 Q20.9423 636.415 20.9423 632.033 Q20.9423 626.327 24.7806 622.522 Q25.9695 621.333 27.498 620.756 Q29.0265 620.145 30.0455 620.077 Q31.0306 620.009 33.0007 620.009 L46.8932 620.009 Q47.3008 620.009 47.9802 619.873 Q48.6595 619.737 49.5427 619.126 Q50.3918 618.48 50.3918 617.427 Q50.3918 614.914 45.9421 614.948 L42.0359 614.948 L42.0359 613.181 L45.9421 613.181 Q49.6446 613.181 51.1051 615.151 Q52.5318 617.088 52.5318 618.888 Q52.5318 621.198 50.8334 622.658 Q49.1351 624.119 46.8253 624.323 Q49.4747 625.376 51.207 627.787 Q52.9054 630.165 52.9054 633.426 Q52.9054 635.939 52.26 638.317 Q51.6486 640.661 49.9163 642.631 Q48.15 644.567 45.5006 644.567 M45.4326 639.2 Q48.0141 639.2 49.6785 637.366 Q51.3429 635.532 51.3429 632.95 Q51.3429 630.029 49.1011 627.414 Q46.8253 624.798 42.3756 624.798 L35.4123 624.798 Q35.6841 632.509 38.7751 635.871 Q41.8321 639.2 45.4326 639.2 Z" fill="#ffffff" fill-rule="nonzero" fill-opacity="1" /><path clip-path="url(#clip430)" d="M52.1242 610.396 L49.9842 610.396 Q49.9842 606.694 49.5427 605.844 Q49.0671 604.995 46.8253 604.995 L10.6503 604.995 Q8.0688 604.995 7.42343 605.912 Q6.77805 606.796 6.77805 610.396 L4.60416 610.396 L3.85688 600.41 L46.8253 600.41 Q49.0671 600.41 49.5427 599.527 Q49.9842 598.643 49.9842 594.975 L52.1242 594.975 Q52.1242 595.824 52.0562 597.59 Q51.9883 599.357 51.9543 600.647 Q51.9204 601.938 51.9204 602.686 Q51.9204 603.501 52.1242 610.396 Z" fill="#ffffff" fill-rule="nonzero" fill-opacity="1" /><path clip-path="url(#clip430)" d="M52.1242 591.137 L49.9842 591.137 Q49.9842 587.434 49.5427 586.585 Q49.0671 585.736 46.8253 585.736 L28.1094 585.736 Q25.5279 585.736 24.9165 586.619 Q24.3051 587.468 24.3051 590.865 L22.1312 590.865 L21.3839 581.15 L46.8932 581.15 Q48.9652 581.15 49.4747 580.403 Q49.9842 579.656 49.9842 576.259 L52.1242 576.259 Q51.9204 583.358 51.9204 583.494 Q51.9204 584.445 52.1242 591.137 M9.25765 588.216 Q7.865 588.216 6.74409 587.163 Q5.5892 586.076 5.5892 584.547 Q5.5892 583.019 6.64218 581.932 Q7.6612 580.845 9.29162 580.845 Q10.8881 580.845 11.9411 581.932 Q12.9601 583.019 12.9601 584.547 Q12.9601 586.144 11.8392 587.197 Q10.7182 588.216 9.25765 588.216 Z" fill="#ffffff" fill-rule="nonzero" fill-opacity="1" /><path clip-path="url(#clip430)" d="M52.1242 571.945 L49.9842 571.945 Q49.9842 568.243 49.5427 567.394 Q49.0671 566.545 46.8253 566.545 L28.1773 566.545 Q25.5958 566.545 24.9505 567.462 Q24.3051 568.345 24.3051 571.945 L22.1312 571.945 L21.3839 562.163 L28.6868 562.163 Q21.3839 558.902 21.3839 551.871 Q21.3839 546.64 23.9654 544.568 Q25.6977 543.039 27.6339 542.734 Q29.57 542.394 34.5971 542.394 L47.8783 542.394 Q49.3389 542.326 49.6785 541.205 Q49.9842 540.084 49.9842 536.959 L52.1242 536.959 Q51.9204 544.058 51.9204 544.772 Q51.9204 545.315 52.1242 552.618 L49.9842 552.618 Q49.9842 548.916 49.5427 548.066 Q49.0671 547.183 46.8253 547.183 L30.623 547.183 Q27.0904 547.183 25.0184 548.27 Q22.9124 549.357 22.9124 552.346 Q22.9124 555.947 25.9355 558.834 Q28.9586 561.721 34.0536 561.721 L46.8253 561.721 Q49.0671 561.721 49.5427 560.872 Q49.9842 559.989 49.9842 556.32 L52.1242 556.32 Q51.9204 563.42 51.9204 564.099 Q51.9204 564.642 52.1242 571.945 Z" fill="#ffffff" fill-rule="nonzero" fill-opacity="1" /><path clip-path="url(#clip430)" d="M57.6268 533.664 Q55.385 533.664 53.4489 531.966 Q51.5127 530.234 50.6636 527.245 Q48.7274 530.302 44.4816 530.302 Q41.2207 530.302 38.7071 528.162 Q35.9898 531.423 31.5401 531.423 Q27.4301 531.423 24.407 528.162 Q21.3839 524.901 21.3839 520.145 Q21.3839 515.967 23.8975 512.775 Q20.6366 509.446 20.6027 505.404 Q20.6027 503.603 21.7236 502.754 Q22.8445 501.871 24.0333 501.871 Q25.0863 501.871 25.5958 502.55 Q26.1053 503.196 26.1053 503.875 Q26.1053 504.724 25.5619 505.336 Q24.9844 505.913 24.1013 505.913 Q22.6407 505.913 22.1991 504.792 Q22.1312 504.996 22.1312 505.472 Q22.1312 508.868 24.8486 511.756 Q27.498 508.902 31.608 508.902 Q35.718 508.902 38.7411 512.163 Q41.7642 515.424 41.7642 520.145 Q41.7642 524.052 39.5903 527.041 Q40.9829 528.23 42.8851 528.23 Q44.6174 528.23 45.9761 527.177 Q47.3348 526.124 47.5386 524.527 Q47.6065 524.052 47.6065 519.33 Q47.6065 516.545 47.6745 515.016 Q47.7424 513.488 48.2179 511.314 Q48.6595 509.106 49.5427 507.374 Q52.0562 502.856 57.491 502.822 Q61.4651 502.822 63.9447 507.408 Q66.4583 511.959 66.4583 518.277 Q66.4583 524.663 63.9107 529.181 Q61.3972 533.664 57.6268 533.664 M57.6268 530.03 Q60.4801 530.03 62.654 526.667 Q64.8618 523.304 64.8618 518.209 Q64.8618 513.216 62.6879 509.853 Q60.548 506.457 57.6268 506.457 Q55.5548 506.457 54.2301 507.646 Q52.9054 508.834 52.3619 511.28 Q51.8524 513.692 51.7505 515.39 Q51.6486 517.088 51.6486 520.213 L51.6486 524.323 Q51.7845 526.701 53.5168 528.365 Q55.2491 530.03 57.6268 530.03 M31.608 526.226 Q40.1677 526.226 40.1677 520.145 Q40.1677 517.088 37.3824 515.22 Q35.5142 514.099 31.5401 514.099 Q22.9804 514.099 22.9804 520.145 Q22.9804 523.202 25.7657 525.105 Q27.6339 526.226 31.608 526.226 Z" fill="#ffffff" fill-rule="nonzero" fill-opacity="1" /><path clip-path="url(#clip430)" d="M36.805 475.75 Q30.2493 475.75 25.5958 471.538 Q20.9423 467.327 20.9423 461.28 Q20.9423 455.166 24.9165 452.007 Q28.8906 448.814 34.5971 448.814 Q35.6501 448.814 35.8539 449.086 Q36.0577 449.358 36.0577 450.547 L36.0577 469.976 Q43.1568 469.976 46.4856 467.87 Q51.1391 464.949 51.1391 460.024 Q51.1391 459.344 51.0032 458.529 Q50.8674 457.714 50.2899 456.049 Q49.6785 454.385 48.0821 452.924 Q46.4856 451.464 43.972 450.615 Q42.987 450.411 43.021 449.732 Q43.021 448.814 43.8362 448.814 Q44.4476 448.814 45.8402 449.494 Q47.1989 450.139 48.8293 451.396 Q50.4598 452.653 51.6826 455.098 Q52.9054 457.51 52.9054 460.431 Q52.9054 466.545 48.2859 471.165 Q43.6324 475.75 36.805 475.75 M34.5971 469.908 L34.5971 453.4 Q33.1365 453.4 31.5061 453.672 Q29.8757 453.91 27.6339 454.657 Q25.3581 455.37 23.9314 457.068 Q22.5048 458.767 22.5048 461.28 Q22.5048 462.401 22.9804 463.624 Q23.4559 464.813 24.6108 466.274 Q25.7657 467.734 28.3811 468.753 Q30.9966 469.772 34.5971 469.908 Z" fill="#ffffff" fill-rule="nonzero" fill-opacity="1" /><path clip-path="url(#clip430)" d="M24.3051 444.501 L22.1312 444.501 L22.1312 439.032 L14.1489 439.032 Q8.98592 439.032 6.03078 435.703 Q3.07564 432.34 3.07564 428.23 Q3.07564 425.513 4.53622 423.747 Q5.99681 421.98 7.9669 421.98 Q9.29162 421.98 10.1748 422.796 Q11.0239 423.577 11.0239 425.037 Q11.0239 426.43 10.1408 427.245 Q9.25765 428.027 8.03484 428.027 Q5.79301 428.027 5.11366 425.955 Q4.63812 427.008 4.60416 428.23 Q4.60416 430.744 7.18566 432.714 Q9.76716 434.65 14.081 434.65 L22.1312 434.65 L22.1312 426.498 L24.3051 426.498 L24.3051 434.412 L46.6894 434.412 Q48.6935 434.412 49.3389 433.597 Q49.9842 432.748 49.9842 429.148 L49.9842 427.687 L52.1242 427.687 Q51.9204 430.472 51.9204 436.518 Q51.9204 437.368 51.9543 438.692 Q51.9883 439.983 52.0562 441.749 Q52.1242 443.482 52.1242 444.433 L49.9842 444.433 Q49.9842 440.73 49.5427 439.881 Q49.0671 439.032 46.8253 439.032 L24.3051 439.032 L24.3051 444.501 Z" fill="#ffffff" fill-rule="nonzero" fill-opacity="1" /><path clip-path="url(#clip430)" d="M24.3051 423.305 L22.1312 423.305 L22.1312 417.836 L14.1489 417.836 Q8.98592 417.836 6.03078 414.508 Q3.07564 411.145 3.07564 407.035 Q3.07564 404.318 4.53622 402.551 Q5.99681 400.785 7.9669 400.785 Q9.29162 400.785 10.1748 401.6 Q11.0239 402.381 11.0239 403.842 Q11.0239 405.235 10.1408 406.05 Q9.25765 406.831 8.03484 406.831 Q5.79301 406.831 5.11366 404.759 Q4.63812 405.812 4.60416 407.035 Q4.60416 409.548 7.18566 411.519 Q9.76716 413.455 14.081 413.455 L22.1312 413.455 L22.1312 405.303 L24.3051 405.303 L24.3051 413.217 L46.6894 413.217 Q48.6935 413.217 49.3389 412.402 Q49.9842 411.553 49.9842 407.952 L49.9842 406.491 L52.1242 406.491 Q51.9204 409.277 51.9204 415.323 Q51.9204 416.172 51.9543 417.497 Q51.9883 418.788 52.0562 420.554 Q52.1242 422.286 52.1242 423.237 L49.9842 423.237 Q49.9842 419.535 49.5427 418.686 Q49.0671 417.836 46.8253 417.836 L24.3051 417.836 L24.3051 423.305 Z" fill="#ffffff" fill-rule="nonzero" fill-opacity="1" /><path clip-path="url(#clip430)" d="M52.1242 402.11 L49.9842 402.11 Q49.9842 398.407 49.5427 397.558 Q49.0671 396.709 46.8253 396.709 L28.1094 396.709 Q25.5279 396.709 24.9165 397.592 Q24.3051 398.441 24.3051 401.838 L22.1312 401.838 L21.3839 392.123 L46.8932 392.123 Q48.9652 392.123 49.4747 391.376 Q49.9842 390.629 49.9842 387.232 L52.1242 387.232 Q51.9204 394.331 51.9204 394.467 Q51.9204 395.418 52.1242 402.11 M9.25765 399.189 Q7.865 399.189 6.74409 398.136 Q5.5892 397.049 5.5892 395.52 Q5.5892 393.992 6.64218 392.905 Q7.6612 391.818 9.29162 391.818 Q10.8881 391.818 11.9411 392.905 Q12.9601 393.992 12.9601 395.52 Q12.9601 397.117 11.8392 398.169 Q10.7182 399.189 9.25765 399.189 Z" fill="#ffffff" fill-rule="nonzero" fill-opacity="1" /><path clip-path="url(#clip430)" d="M48.3198 378.367 Q43.7003 382.782 37.1107 382.782 Q30.4871 382.782 25.7317 378.435 Q20.9423 374.087 20.9423 367.701 Q20.9423 363.455 22.9804 360.262 Q24.9844 357.069 28.4151 357.069 Q29.9436 357.069 30.8268 357.986 Q31.676 358.87 31.676 360.262 Q31.676 361.723 30.7928 362.606 Q29.8757 363.455 28.483 363.455 Q27.8716 363.455 27.2602 363.251 Q26.6488 363.047 26.0034 362.3 Q25.3581 361.519 25.2562 360.194 Q22.7086 362.674 22.7086 367.497 Q22.7086 367.565 22.7086 367.633 Q22.7086 371.166 26.0374 374.087 Q29.3662 377.008 36.9748 377.008 Q40.949 377.008 43.8701 376.057 Q46.7574 375.072 48.2519 373.475 Q49.7465 371.879 50.4598 370.316 Q51.1391 368.754 51.1391 367.225 Q51.1391 360.398 43.8362 358.088 Q43.1568 357.884 43.1568 357.205 Q43.1568 356.288 43.8362 356.288 Q44.1759 356.288 45.059 356.56 Q45.9421 356.832 47.3348 357.681 Q48.7274 358.53 49.9503 359.753 Q51.1391 360.942 52.0223 363.081 Q52.9054 365.187 52.9054 367.837 Q52.9054 373.951 48.3198 378.367 Z" fill="#ffffff" fill-rule="nonzero" fill-opacity="1" /><path clip-path="url(#clip430)" d="M52.1242 351.974 L49.9842 351.974 Q49.9842 348.272 49.5427 347.423 Q49.0671 346.573 46.8253 346.573 L28.1094 346.573 Q25.5279 346.573 24.9165 347.457 Q24.3051 348.306 24.3051 351.702 L22.1312 351.702 L21.3839 341.988 L46.8932 341.988 Q48.9652 341.988 49.4747 341.241 Q49.9842 340.493 49.9842 337.097 L52.1242 337.097 Q51.9204 344.196 51.9204 344.332 Q51.9204 345.283 52.1242 351.974 M9.25765 349.053 Q7.865 349.053 6.74409 348 Q5.5892 346.913 5.5892 345.385 Q5.5892 343.856 6.64218 342.769 Q7.6612 341.682 9.29162 341.682 Q10.8881 341.682 11.9411 342.769 Q12.9601 343.856 12.9601 345.385 Q12.9601 346.981 11.8392 348.034 Q10.7182 349.053 9.25765 349.053 Z" fill="#ffffff" fill-rule="nonzero" fill-opacity="1" /><path clip-path="url(#clip430)" d="M36.805 333.088 Q30.2493 333.088 25.5958 328.877 Q20.9423 324.665 20.9423 318.619 Q20.9423 312.504 24.9165 309.345 Q28.8906 306.153 34.5971 306.153 Q35.6501 306.153 35.8539 306.424 Q36.0577 306.696 36.0577 307.885 L36.0577 327.314 Q43.1568 327.314 46.4856 325.208 Q51.1391 322.287 51.1391 317.362 Q51.1391 316.682 51.0032 315.867 Q50.8674 315.052 50.2899 313.388 Q49.6785 311.723 48.0821 310.263 Q46.4856 308.802 43.972 307.953 Q42.987 307.749 43.021 307.07 Q43.021 306.153 43.8362 306.153 Q44.4476 306.153 45.8402 306.832 Q47.1989 307.477 48.8293 308.734 Q50.4598 309.991 51.6826 312.436 Q52.9054 314.848 52.9054 317.769 Q52.9054 323.883 48.2859 328.503 Q43.6324 333.088 36.805 333.088 M34.5971 327.246 L34.5971 310.738 Q33.1365 310.738 31.5061 311.01 Q29.8757 311.248 27.6339 311.995 Q25.3581 312.708 23.9314 314.407 Q22.5048 316.105 22.5048 318.619 Q22.5048 319.739 22.9804 320.962 Q23.4559 322.151 24.6108 323.612 Q25.7657 325.072 28.3811 326.091 Q30.9966 327.11 34.5971 327.246 Z" fill="#ffffff" fill-rule="nonzero" fill-opacity="1" /><path clip-path="url(#clip430)" d="M52.1242 301.907 L49.9842 301.907 Q49.9842 298.204 49.5427 297.355 Q49.0671 296.506 46.8253 296.506 L28.1773 296.506 Q25.5958 296.506 24.9505 297.423 Q24.3051 298.306 24.3051 301.907 L22.1312 301.907 L21.3839 292.124 L28.6868 292.124 Q21.3839 288.863 21.3839 281.832 Q21.3839 276.601 23.9654 274.529 Q25.6977 273.001 27.6339 272.695 Q29.57 272.355 34.5971 272.355 L47.8783 272.355 Q49.3389 272.287 49.6785 271.166 Q49.9842 270.046 49.9842 266.921 L52.1242 266.921 Q51.9204 274.02 51.9204 274.733 Q51.9204 275.276 52.1242 282.579 L49.9842 282.579 Q49.9842 278.877 49.5427 278.028 Q49.0671 277.145 46.8253 277.145 L30.623 277.145 Q27.0904 277.145 25.0184 278.232 Q22.9124 279.319 22.9124 282.308 Q22.9124 285.908 25.9355 288.795 Q28.9586 291.683 34.0536 291.683 L46.8253 291.683 Q49.0671 291.683 49.5427 290.833 Q49.9842 289.95 49.9842 286.282 L52.1242 286.282 Q51.9204 293.381 51.9204 294.06 Q51.9204 294.604 52.1242 301.907 Z" fill="#ffffff" fill-rule="nonzero" fill-opacity="1" /><path clip-path="url(#clip430)" d="M48.3198 258.768 Q43.7003 263.184 37.1107 263.184 Q30.4871 263.184 25.7317 258.836 Q20.9423 254.489 20.9423 248.103 Q20.9423 243.857 22.9804 240.664 Q24.9844 237.471 28.4151 237.471 Q29.9436 237.471 30.8268 238.388 Q31.676 239.271 31.676 240.664 Q31.676 242.125 30.7928 243.008 Q29.8757 243.857 28.483 243.857 Q27.8716 243.857 27.2602 243.653 Q26.6488 243.449 26.0034 242.702 Q25.3581 241.921 25.2562 240.596 Q22.7086 243.076 22.7086 247.899 Q22.7086 247.967 22.7086 248.035 Q22.7086 251.567 26.0374 254.489 Q29.3662 257.41 36.9748 257.41 Q40.949 257.41 43.8701 256.459 Q46.7574 255.474 48.2519 253.877 Q49.7465 252.281 50.4598 250.718 Q51.1391 249.156 51.1391 247.627 Q51.1391 240.8 43.8362 238.49 Q43.1568 238.286 43.1568 237.607 Q43.1568 236.69 43.8362 236.69 Q44.1759 236.69 45.059 236.962 Q45.9421 237.233 47.3348 238.082 Q48.7274 238.932 49.9503 240.154 Q51.1391 241.343 52.0223 243.483 Q52.9054 245.589 52.9054 248.239 Q52.9054 254.353 48.3198 258.768 Z" fill="#ffffff" fill-rule="nonzero" fill-opacity="1" /><path clip-path="url(#clip430)" d="M60.7518 233.361 Q59.2912 233.361 58.51 232.512 Q57.7627 231.629 57.7627 230.44 Q57.7627 229.183 58.5439 228.368 Q59.3592 227.519 60.6839 227.519 Q63.2654 227.519 63.605 230.236 Q64.8618 228.911 64.8618 226.975 Q64.8618 224.903 63.3333 223.239 Q61.8048 221.54 60.3442 220.827 Q58.8836 220.08 56.2342 219.027 Q54.1622 218.042 52.1242 217.295 L26.7168 227.722 Q25.0524 228.402 24.6787 229.455 Q24.3051 230.508 24.3051 233.361 L22.1312 233.361 Q22.335 230.236 22.335 226.602 Q22.335 224.462 22.1312 219.027 L24.3051 219.027 Q24.3051 222.933 26.1053 222.933 Q26.3091 222.933 27.3621 222.526 L46.078 214.781 L28.9586 207.75 Q27.9735 207.342 27.2942 207.342 Q24.441 207.342 24.3051 210.603 L22.1312 210.603 Q22.335 206.018 22.335 204.557 Q22.335 201.704 22.1312 199.36 L24.3051 199.36 Q24.3051 204.013 28.7548 205.814 L58.442 218.076 Q66.3564 221.405 66.3903 226.975 Q66.3903 229.625 64.7599 231.493 Q63.1295 233.361 60.7518 233.361 Z" fill="#ffffff" fill-rule="nonzero" fill-opacity="1" /><polyline clip-path="url(#clip432)" style="stroke:#fe4365; stroke-linecap:round; stroke-linejoin:round; stroke-width:8; stroke-opacity:1; fill:none" points="284.562,138.195 953.88,322.355 1623.2,475.247 2292.52,521.662 "/>
<circle clip-path="url(#clip432)" cx="284.562" cy="138.195" r="10.8" fill="#fe4365" fill-rule="evenodd" fill-opacity="1" stroke="#adb2b7" stroke-opacity="1" stroke-width="2.4"/>
<circle clip-path="url(#clip432)" cx="953.88" cy="322.355" r="10.8" fill="#fe4365" fill-rule="evenodd" fill-opacity="1" stroke="#adb2b7" stroke-opacity="1" stroke-width="2.4"/>
<circle clip-path="url(#clip432)" cx="1623.2" cy="475.247" r="10.8" fill="#fe4365" fill-rule="evenodd" fill-opacity="1" stroke="#adb2b7" stroke-opacity="1" stroke-width="2.4"/>
<circle clip-path="url(#clip432)" cx="2292.52" cy="521.662" r="10.8" fill="#fe4365" fill-rule="evenodd" fill-opacity="1" stroke="#adb2b7" stroke-opacity="1" stroke-width="2.4"/>
</svg>
