<?xml version="1.0" encoding="UTF-8" standalone="no"?>
<!-- Created with Inkscape (http://www.inkscape.org/) -->

<svg
   version="1.1"
   id="svg2"
   xml:space="preserve"
   width="1305.3708"
   height="763.66748"
   viewBox="0 0 1305.3708 763.66748"
   sodipodi:docname="tsunami-weak-scaling-updated-default.svg"
   inkscape:version="1.3 (0e150ed6c4, 2023-07-21)"
   xmlns:inkscape="http://www.inkscape.org/namespaces/inkscape"
   xmlns:sodipodi="http://sodipodi.sourceforge.net/DTD/sodipodi-0.dtd"
   xmlns="http://www.w3.org/2000/svg"
   xmlns:svg="http://www.w3.org/2000/svg"><defs
     id="defs6"><clipPath
       clipPathUnits="userSpaceOnUse"
       id="clipPath144"><path
         d="M 79.028125,66.590625 H 971.82812 V 565.55062 H 79.028125 Z"
         id="path142" /></clipPath><clipPath
       clipPathUnits="userSpaceOnUse"
       id="clipPath156"><path
         d="M -8,-8 H 8 V 8 H -8 Z"
         id="path154" /></clipPath><clipPath
       clipPathUnits="userSpaceOnUse"
       id="clipPath168"><path
         d="M -8,-8 H 8 V 8 H -8 Z"
         id="path166" /></clipPath><clipPath
       clipPathUnits="userSpaceOnUse"
       id="clipPath180"><path
         d="M -8,-8 H 8 V 8 H -8 Z"
         id="path178" /></clipPath><clipPath
       clipPathUnits="userSpaceOnUse"
       id="clipPath192"><path
         d="M -8,-8 H 8 V 8 H -8 Z"
         id="path190" /></clipPath><clipPath
       clipPathUnits="userSpaceOnUse"
       id="clipPath204"><path
         d="M -8,-8 H 8 V 8 H -8 Z"
         id="path202" /></clipPath><clipPath
       clipPathUnits="userSpaceOnUse"
       id="clipPath216"><path
         d="M -8,-8 H 8 V 8 H -8 Z"
         id="path214" /></clipPath><clipPath
       clipPathUnits="userSpaceOnUse"
       id="clipPath228"><path
         d="M -8,-8 H 8 V 8 H -8 Z"
         id="path226" /></clipPath><clipPath
       clipPathUnits="userSpaceOnUse"
       id="clipPath240"><path
         d="M -8,-8 H 8 V 8 H -8 Z"
         id="path238" /></clipPath><clipPath
       clipPathUnits="userSpaceOnUse"
       id="clipPath252"><path
         d="M -8,-8 H 8 V 8 H -8 Z"
         id="path250" /></clipPath><clipPath
       clipPathUnits="userSpaceOnUse"
       id="clipPath262"><path
         d="M 79.028125,66.590625 H 971.82812 V 565.55062 H 79.028125 Z"
         id="path260" /></clipPath><clipPath
       clipPathUnits="userSpaceOnUse"
       id="clipPath274"><path
         d="M -8,-8 H 8 V 8 H -8 Z"
         id="path272" /></clipPath><clipPath
       clipPathUnits="userSpaceOnUse"
       id="clipPath286"><path
         d="M -8,-8 H 8 V 8 H -8 Z"
         id="path284" /></clipPath><clipPath
       clipPathUnits="userSpaceOnUse"
       id="clipPath298"><path
         d="M -8,-8 H 8 V 8 H -8 Z"
         id="path296" /></clipPath><clipPath
       clipPathUnits="userSpaceOnUse"
       id="clipPath310"><path
         d="M -8,-8 H 8 V 8 H -8 Z"
         id="path308" /></clipPath><clipPath
       clipPathUnits="userSpaceOnUse"
       id="clipPath322"><path
         d="M -8,-8 H 8 V 8 H -8 Z"
         id="path320" /></clipPath><clipPath
       clipPathUnits="userSpaceOnUse"
       id="clipPath334"><path
         d="M -8,-8 H 8 V 8 H -8 Z"
         id="path332" /></clipPath><clipPath
       clipPathUnits="userSpaceOnUse"
       id="clipPath346"><path
         d="M -8,-8 H 8 V 8 H -8 Z"
         id="path344" /></clipPath><clipPath
       clipPathUnits="userSpaceOnUse"
       id="clipPath358"><path
         d="M -8,-8 H 8 V 8 H -8 Z"
         id="path356" /></clipPath><clipPath
       clipPathUnits="userSpaceOnUse"
       id="clipPath370"><path
         d="M -8,-8 H 8 V 8 H -8 Z"
         id="path368" /></clipPath><clipPath
       clipPathUnits="userSpaceOnUse"
       id="clipPath380"><path
         d="M 79.028125,66.590625 H 971.82812 V 565.55062 H 79.028125 Z"
         id="path378" /></clipPath><clipPath
       clipPathUnits="userSpaceOnUse"
       id="clipPath392"><path
         d="M -8,-8 H 8 V 8 H -8 Z"
         id="path390" /></clipPath><clipPath
       clipPathUnits="userSpaceOnUse"
       id="clipPath404"><path
         d="M -8,-8 H 8 V 8 H -8 Z"
         id="path402" /></clipPath><clipPath
       clipPathUnits="userSpaceOnUse"
       id="clipPath416"><path
         d="M -8,-8 H 8 V 8 H -8 Z"
         id="path414" /></clipPath><clipPath
       clipPathUnits="userSpaceOnUse"
       id="clipPath428"><path
         d="M -8,-8 H 8 V 8 H -8 Z"
         id="path426" /></clipPath><clipPath
       clipPathUnits="userSpaceOnUse"
       id="clipPath440"><path
         d="M -8,-8 H 8 V 8 H -8 Z"
         id="path438" /></clipPath><clipPath
       clipPathUnits="userSpaceOnUse"
       id="clipPath452"><path
         d="M -8,-8 H 8 V 8 H -8 Z"
         id="path450" /></clipPath><clipPath
       clipPathUnits="userSpaceOnUse"
       id="clipPath464"><path
         d="M -8,-8 H 8 V 8 H -8 Z"
         id="path462" /></clipPath><clipPath
       clipPathUnits="userSpaceOnUse"
       id="clipPath476"><path
         d="M -8,-8 H 8 V 8 H -8 Z"
         id="path474" /></clipPath><clipPath
       clipPathUnits="userSpaceOnUse"
       id="clipPath488"><path
         d="M -8,-8 H 8 V 8 H -8 Z"
         id="path486" /></clipPath></defs><sodipodi:namedview
     id="namedview4"
     pagecolor="#ffffff"
     bordercolor="#666666"
     borderopacity="1.0"
     inkscape:pageshadow="2"
     inkscape:pageopacity="0.0"
     inkscape:pagecheckerboard="0"
     showgrid="false"
     inkscape:zoom="0.49794279"
     inkscape:cx="845.47865"
     inkscape:cy="233.96262"
     inkscape:window-width="1920"
     inkscape:window-height="991"
     inkscape:window-x="1341"
     inkscape:window-y="1344"
     inkscape:window-maximized="1"
     inkscape:current-layer="g8"
     inkscape:showpageshadow="2"
     inkscape:deskcolor="#d1d1d1" /><g
     id="g8"
     inkscape:groupmode="layer"
     inkscape:label="weak_scaling"
     transform="matrix(1.3333333,0,0,-1.3333333,0,763.6675)"><text
       transform="scale(1,-1)"
       style="font-style:normal;font-variant:normal;font-weight:normal;font-stretch:normal;font-size:20px;font-family:'CMU Serif';-inkscape-font-specification:'CMU Serif, Normal';font-variant-ligatures:normal;font-variant-caps:normal;font-variant-numeric:normal;font-variant-east-asian:normal;writing-mode:lr-tb;fill:#000000;fill-opacity:1;fill-rule:nonzero;stroke:none"
       id="text28"
       x="114.22017"
       y="-44.387501"><tspan
         x="114.22017"
         y="-44.387501"
         id="tspan26"
         style="font-style:normal;font-variant:normal;font-weight:normal;font-stretch:normal;font-size:20px;font-family:'CMU Serif';-inkscape-font-specification:'CMU Serif, Normal';font-variant-ligatures:normal;font-variant-caps:normal;font-variant-numeric:normal;font-variant-east-asian:normal">2</tspan></text><text
       transform="scale(1,-1)"
       style="font-style:normal;font-variant:normal;font-weight:normal;font-stretch:normal;font-size:20px;font-family:'CMU Serif';-inkscape-font-specification:'CMU Serif, Normal';font-variant-ligatures:normal;font-variant-caps:normal;font-variant-numeric:normal;font-variant-east-asian:normal;writing-mode:lr-tb;fill:#000000;fill-opacity:1;fill-rule:nonzero;stroke:none"
       id="text36"
       x="249.49361"
       y="-44.387501"><tspan
         x="249.49361"
         y="-44.387501"
         id="tspan34"
         style="font-style:normal;font-variant:normal;font-weight:normal;font-stretch:normal;font-size:20px;font-family:'CMU Serif';-inkscape-font-specification:'CMU Serif, Normal';font-variant-ligatures:normal;font-variant-caps:normal;font-variant-numeric:normal;font-variant-east-asian:normal">4</tspan></text><text
       transform="scale(1,-1)"
       style="font-style:normal;font-variant:normal;font-weight:normal;font-stretch:normal;font-size:20px;font-family:'CMU Serif';-inkscape-font-specification:'CMU Serif, Normal';font-variant-ligatures:normal;font-variant-caps:normal;font-variant-numeric:normal;font-variant-east-asian:normal;writing-mode:lr-tb;fill:#000000;fill-opacity:1;fill-rule:nonzero;stroke:none"
       id="text44"
       x="384.76703"
       y="-44.387501"><tspan
         x="384.76703"
         y="-44.387501"
         id="tspan42"
         style="font-style:normal;font-variant:normal;font-weight:normal;font-stretch:normal;font-size:20px;font-family:'CMU Serif';-inkscape-font-specification:'CMU Serif, Normal';font-variant-ligatures:normal;font-variant-caps:normal;font-variant-numeric:normal;font-variant-east-asian:normal">8</tspan></text><text
       transform="scale(1,-1)"
       style="font-style:normal;font-variant:normal;font-weight:normal;font-stretch:normal;font-size:20px;font-family:'CMU Serif';-inkscape-font-specification:'CMU Serif, Normal';font-variant-ligatures:normal;font-variant-caps:normal;font-variant-numeric:normal;font-variant-east-asian:normal;writing-mode:lr-tb;fill:#000000;fill-opacity:1;fill-rule:nonzero;stroke:none"
       id="text52"
       x="512.70935"
       y="-44.387501"><tspan
         sodipodi:role="line"
         id="tspan50"
         x="512.70935"
         y="-44.387501">16</tspan></text><text
       transform="scale(1,-1)"
       style="font-style:normal;font-variant:normal;font-weight:normal;font-stretch:normal;font-size:20px;font-family:'CMU Serif';-inkscape-font-specification:'CMU Serif, Normal';font-variant-ligatures:normal;font-variant-caps:normal;font-variant-numeric:normal;font-variant-east-asian:normal;writing-mode:lr-tb;fill:#000000;fill-opacity:1;fill-rule:nonzero;stroke:none"
       id="text60"
       x="650.39001"
       y="-44.387501"><tspan
         sodipodi:role="line"
         id="tspan58"
         x="650.39001"
         y="-44.387501">32</tspan></text><text
       transform="scale(1,-1)"
       style="font-style:normal;font-variant:normal;font-weight:normal;font-stretch:normal;font-size:20px;font-family:'CMU Serif';-inkscape-font-specification:'CMU Serif, Normal';font-variant-ligatures:normal;font-variant-caps:normal;font-variant-numeric:normal;font-variant-east-asian:normal;writing-mode:lr-tb;fill:#000000;fill-opacity:1;fill-rule:nonzero;stroke:none"
       id="text68"
       x="786.24347"
       y="-44.387501"><tspan
         sodipodi:role="line"
         id="tspan66"
         x="786.24347"
         y="-44.387501">64</tspan></text><text
       transform="scale(1,-1)"
       style="font-style:normal;font-variant:normal;font-weight:normal;font-stretch:normal;font-size:20px;font-family:'CMU Serif';-inkscape-font-specification:'CMU Serif, Normal';font-variant-ligatures:normal;font-variant-caps:normal;font-variant-numeric:normal;font-variant-east-asian:normal;writing-mode:lr-tb;fill:#000000;fill-opacity:1;fill-rule:nonzero;stroke:none"
       id="text76"
       x="915.3869"
       y="-44.387501"><tspan
         sodipodi:role="line"
         id="tspan74"
         x="915.3869"
         y="-44.387501">128</tspan></text><g
       id="g86"
       transform="translate(414.95349,13.434375)"><text
         transform="scale(1,-1)"
         style="font-variant:normal;font-weight:normal;font-size:30px;font-family:'DejaVu Sans Mono for Powerline';-inkscape-font-specification:DejaVuSans;writing-mode:lr-tb;fill:#000000;fill-opacity:1;fill-rule:nonzero;stroke:none"
         id="text90"><tspan
           sodipodi:role="line"
           id="tspan88"
           x="0"
           y="0"
           style="font-style:normal;font-variant:normal;font-weight:normal;font-stretch:normal;font-family:'CMU Serif';-inkscape-font-specification:'CMU Serif'">Number of ranks</tspan></text></g><text
       transform="scale(1,-1)"
       style="font-style:normal;font-variant:normal;font-weight:normal;font-stretch:normal;font-size:20px;font-family:'CMU Serif';-inkscape-font-specification:'CMU Serif, Normal';font-variant-ligatures:normal;font-variant-caps:normal;font-variant-numeric:normal;font-variant-east-asian:normal;writing-mode:lr-tb;fill:#000000;fill-opacity:1;fill-rule:nonzero;stroke:none"
       id="text98"
       x="44.185017"
       y="-140.39561"><tspan
         sodipodi:role="line"
         x="44.185017"
         y="-140.39561"
         id="tspan54725">0.2</tspan></text><text
       transform="scale(1,-1)"
       style="font-style:normal;font-variant:normal;font-weight:normal;font-stretch:normal;font-size:20px;font-family:'CMU Serif';-inkscape-font-specification:'CMU Serif, Normal';font-variant-ligatures:normal;font-variant-caps:normal;font-variant-numeric:normal;font-variant-east-asian:normal;writing-mode:lr-tb;fill:#000000;fill-opacity:1;fill-rule:nonzero;stroke:none"
       id="text106"
       x="44.185017"
       y="-234.86719"><tspan
         sodipodi:role="line"
         id="tspan104"
         x="44.185017"
         y="-234.86719">0.4</tspan></text><text
       transform="scale(1,-1)"
       style="font-style:normal;font-variant:normal;font-weight:normal;font-stretch:normal;font-size:20px;font-family:'CMU Serif';-inkscape-font-specification:'CMU Serif, Normal';font-variant-ligatures:normal;font-variant-caps:normal;font-variant-numeric:normal;font-variant-east-asian:normal;writing-mode:lr-tb;fill:#000000;fill-opacity:1;fill-rule:nonzero;stroke:none"
       id="text114"
       x="44.185017"
       y="-331.08578"><tspan
         sodipodi:role="line"
         id="tspan112"
         x="44.185017"
         y="-331.08578">0.6</tspan></text><text
       transform="scale(1,-1)"
       style="font-style:normal;font-variant:normal;font-weight:normal;font-stretch:normal;font-size:20px;font-family:'CMU Serif';-inkscape-font-specification:'CMU Serif, Normal';font-variant-ligatures:normal;font-variant-caps:normal;font-variant-numeric:normal;font-variant-east-asian:normal;writing-mode:lr-tb;fill:#000000;fill-opacity:1;fill-rule:nonzero;stroke:none"
       id="text122"
       x="44.185017"
       y="-426.39438"><tspan
         sodipodi:role="line"
         x="44.185017"
         y="-426.39438"
         id="tspan52651">0.8</tspan></text><text
       transform="scale(1,-1)"
       style="font-style:normal;font-variant:normal;font-weight:normal;font-stretch:normal;font-size:20px;font-family:'CMU Serif';-inkscape-font-specification:'CMU Serif, Normal';font-variant-ligatures:normal;font-variant-caps:normal;font-variant-numeric:normal;font-variant-east-asian:normal;writing-mode:lr-tb;fill:#000000;fill-opacity:1;fill-rule:nonzero;stroke:none"
       id="text130"
       x="44.185017"
       y="-521.70294"><tspan
         sodipodi:role="line"
         id="tspan128"
         x="44.185017"
         y="-521.70294">1.0</tspan></text><g
       id="g132"
       transform="rotate(90,-68.074616,98.071491)"><text
         transform="scale(1,-1)"
         style="font-variant:normal;font-weight:normal;font-size:30px;font-family:'DejaVu Sans Mono for Powerline';-inkscape-font-specification:DejaVuSans;writing-mode:lr-tb;fill:#000000;fill-opacity:1;fill-rule:nonzero;stroke:none"
         id="text136"><tspan
           sodipodi:role="line"
           id="tspan134"
           x="0"
           y="0"
           style="font-style:normal;font-variant:normal;font-weight:normal;font-stretch:normal;font-family:'CMU Serif';-inkscape-font-specification:'CMU Serif'">Weak scaling efficiency</tspan></text></g><g
       id="g492"><path
         d="M 79.028125,66.590625 V 565.55062"
         style="fill:none;stroke:#000000;stroke-width:0.8;stroke-linecap:square;stroke-linejoin:miter;stroke-miterlimit:10;stroke-dasharray:none;stroke-opacity:1"
         id="path494" /><path
         d="M 971.82812,66.590625 V 565.55062"
         style="fill:none;stroke:#000000;stroke-width:0.8;stroke-linecap:square;stroke-linejoin:miter;stroke-miterlimit:10;stroke-dasharray:none;stroke-opacity:1"
         id="path496" /><path
         d="M 79.028125,66.590625 H 971.82812"
         style="fill:none;stroke:#000000;stroke-width:0.8;stroke-linecap:square;stroke-linejoin:miter;stroke-miterlimit:10;stroke-dasharray:none;stroke-opacity:1"
         id="path498" /><path
         d="M 79.028125,565.55062 H 971.82812"
         style="fill:none;stroke:#000000;stroke-width:0.8;stroke-linecap:square;stroke-linejoin:miter;stroke-miterlimit:10;stroke-dasharray:none;stroke-opacity:1"
         id="path500" /><path
         d="M 93.028125,76.590625 H 515.99688 c 2.66666,0 4,1.333333 4,4 v 86.078125 c 0,2.66667 -1.33334,4 -4,4 H 93.028125 c -2.666667,0 -4,-1.33333 -4,-4 V 80.590625 c 0,-2.666667 1.333333,-4 4,-4 z"
         style="fill:#ffffff;fill-opacity:0.8;fill-rule:nonzero;stroke:#cccccc;stroke-width:1;stroke-linecap:butt;stroke-linejoin:miter;stroke-miterlimit:10;stroke-dasharray:none;stroke-opacity:0.8"
         id="path502" /><path
         d="m 97.028125,154.46562 h 20.000005 20"
         style="fill:none;stroke:#1f77b4;stroke-width:1.5;stroke-linecap:square;stroke-linejoin:round;stroke-miterlimit:10;stroke-dasharray:none;stroke-opacity:1"
         id="path504" /><path
         d="m 117.02813,151.46562 c 0.7956,0 1.55874,0.3161 2.12132,0.87868 0.56258,0.56258 0.87868,1.32572 0.87868,2.12132 0,0.79561 -0.3161,1.55874 -0.87868,2.12133 -0.56258,0.56258 -1.32572,0.87867 -2.12132,0.87867 -0.79561,0 -1.55874,-0.31609 -2.12132,-0.87867 -0.56259,-0.56259 -0.87868,-1.32572 -0.87868,-2.12133 0,-0.7956 0.31609,-1.55874 0.87868,-2.12132 0.56258,-0.56258 1.32571,-0.87868 2.12132,-0.87868 z"
         style="fill:#1f77b4;fill-opacity:1;fill-rule:nonzero;stroke:#1f77b4;stroke-width:1;stroke-linecap:butt;stroke-linejoin:round;stroke-miterlimit:10;stroke-dasharray:none;stroke-opacity:1"
         id="path506" /><g
         id="g508"
         transform="translate(153.02813,147.46562)"><text
           transform="scale(1,-1)"
           style="font-variant:normal;font-weight:normal;font-size:20px;font-family:'DejaVu Sans Mono for Powerline';-inkscape-font-specification:DejaVuSans;writing-mode:lr-tb;fill:#000000;fill-opacity:1;fill-rule:nonzero;stroke:none"
           id="text512"><tspan
             sodipodi:role="line"
             id="tspan510"
             x="0"
             y="0"
             style="font-style:normal;font-variant:normal;font-weight:normal;font-stretch:normal;font-family:'CMU Serif';-inkscape-font-specification:'CMU Serif'">32 ranks per node, 4 cores per rank</tspan></text></g><path
         d="m 97.028125,125.10625 h 20.000005 20"
         style="fill:none;stroke:#ff7f0e;stroke-width:1.5;stroke-linecap:square;stroke-linejoin:round;stroke-miterlimit:10;stroke-dasharray:none;stroke-opacity:1"
         id="path514" /><path
         d="m 117.02813,122.10625 c 0.7956,0 1.55874,0.3161 2.12132,0.87868 0.56258,0.56258 0.87868,1.32571 0.87868,2.12132 0,0.79561 -0.3161,1.55874 -0.87868,2.12132 -0.56258,0.56258 -1.32572,0.87868 -2.12132,0.87868 -0.79561,0 -1.55874,-0.3161 -2.12132,-0.87868 -0.56259,-0.56258 -0.87868,-1.32571 -0.87868,-2.12132 0,-0.79561 0.31609,-1.55874 0.87868,-2.12132 0.56258,-0.56258 1.32571,-0.87868 2.12132,-0.87868 z"
         style="fill:#ff7f0e;fill-opacity:1;fill-rule:nonzero;stroke:#ff7f0e;stroke-width:1;stroke-linecap:butt;stroke-linejoin:round;stroke-miterlimit:10;stroke-dasharray:none;stroke-opacity:1"
         id="path516" /><g
         id="g518"
         transform="translate(153.02813,118.10625)"><text
           transform="scale(1,-1)"
           style="font-variant:normal;font-weight:normal;font-size:20px;font-family:'DejaVu Sans Mono for Powerline';-inkscape-font-specification:DejaVuSans;writing-mode:lr-tb;fill:#000000;fill-opacity:1;fill-rule:nonzero;stroke:none"
           id="text522"><tspan
             sodipodi:role="line"
             id="tspan520"
             x="0"
             y="0"
             style="font-style:normal;font-variant:normal;font-weight:normal;font-stretch:normal;font-family:'CMU Serif';-inkscape-font-specification:'CMU Serif'">16 ranks per node, 8 cores per rank</tspan></text></g><path
         d="m 97.028125,95.746875 h 20.000005 20"
         style="fill:none;stroke:#2ca02c;stroke-width:1.5;stroke-linecap:square;stroke-linejoin:round;stroke-miterlimit:10;stroke-dasharray:none;stroke-opacity:1"
         id="path524" /><path
         d="m 117.02813,92.746875 c 0.7956,0 1.55874,0.316099 2.12132,0.87868 0.56258,0.56258 0.87868,1.325711 0.87868,2.12132 0,0.795609 -0.3161,1.55874 -0.87868,2.12132 -0.56258,0.562581 -1.32572,0.87868 -2.12132,0.87868 -0.79561,0 -1.55874,-0.316099 -2.12132,-0.87868 -0.56259,-0.56258 -0.87868,-1.325711 -0.87868,-2.12132 0,-0.795609 0.31609,-1.55874 0.87868,-2.12132 0.56258,-0.562581 1.32571,-0.87868 2.12132,-0.87868 z"
         style="fill:#2ca02c;fill-opacity:1;fill-rule:nonzero;stroke:#2ca02c;stroke-width:1;stroke-linecap:butt;stroke-linejoin:round;stroke-miterlimit:10;stroke-dasharray:none;stroke-opacity:1"
         id="path526" /><g
         id="g528"
         transform="translate(153.02813,88.746875)"><text
           transform="scale(1,-1)"
           style="font-variant:normal;font-weight:normal;font-size:20px;font-family:'DejaVu Sans Mono for Powerline';-inkscape-font-specification:DejaVuSans;writing-mode:lr-tb;fill:#000000;fill-opacity:1;fill-rule:nonzero;stroke:none"
           id="text532"><tspan
             sodipodi:role="line"
             id="tspan530"
             x="0"
             y="0"
             style="font-style:normal;font-variant:normal;font-weight:normal;font-stretch:normal;font-family:'CMU Serif';-inkscape-font-specification:'CMU Serif'">8 ranks per node, 16 cores per rank</tspan></text></g></g><g
       id="g1"
       transform="translate(-129.22187,-344.65613)"><path
         fill="none"
         stroke-width="0.8"
         stroke-linecap="butt"
         stroke-linejoin="round"
         stroke="#000000"
         stroke-opacity="1"
         stroke-miterlimit="10"
         d="m 248.83204,411.24675 v -3.5"
         id="path47" /><path
         fill="none"
         stroke-width="0.8"
         stroke-linecap="butt"
         stroke-linejoin="round"
         stroke="#000000"
         stroke-opacity="1"
         stroke-miterlimit="10"
         d="m 384.10547,411.24675 v -3.5"
         id="path48" /><path
         fill="none"
         stroke-width="0.8"
         stroke-linecap="butt"
         stroke-linejoin="round"
         stroke="#000000"
         stroke-opacity="1"
         stroke-miterlimit="10"
         d="m 519.37891,411.24675 v -3.5"
         id="path49" /><path
         fill="none"
         stroke-width="0.8"
         stroke-linecap="butt"
         stroke-linejoin="round"
         stroke="#000000"
         stroke-opacity="1"
         stroke-miterlimit="10"
         d="m 654.65235,411.24675 v -3.5"
         id="path50" /><path
         fill="none"
         stroke-width="0.8"
         stroke-linecap="butt"
         stroke-linejoin="round"
         stroke="#000000"
         stroke-opacity="1"
         stroke-miterlimit="10"
         d="m 789.92188,411.24675 v -3.5"
         id="path51" /><path
         fill="none"
         stroke-width="0.8"
         stroke-linecap="butt"
         stroke-linejoin="round"
         stroke="#000000"
         stroke-opacity="1"
         stroke-miterlimit="10"
         d="m 925.19532,411.24675 v -3.5"
         id="path53" /><path
         fill="none"
         stroke-width="0.8"
         stroke-linecap="butt"
         stroke-linejoin="round"
         stroke="#000000"
         stroke-opacity="1"
         stroke-miterlimit="10"
         d="m 1060.4688,411.24675 v -3.5"
         id="path55" /><path
         fill="none"
         stroke-width="0.8"
         stroke-linecap="butt"
         stroke-linejoin="round"
         stroke="#000000"
         stroke-opacity="1"
         stroke-miterlimit="10"
         d="m 208.25,491.16472 h -3.5"
         id="path73" /><path
         fill="none"
         stroke-width="0.8"
         stroke-linecap="butt"
         stroke-linejoin="round"
         stroke="#000000"
         stroke-opacity="1"
         stroke-miterlimit="10"
         d="m 208.25,586.47331 h -3.5"
         id="path76" /><path
         fill="none"
         stroke-width="0.8"
         stroke-linecap="butt"
         stroke-linejoin="round"
         stroke="#000000"
         stroke-opacity="1"
         stroke-miterlimit="10"
         d="m 208.25,681.7819 h -3.5"
         id="path79" /><path
         fill="none"
         stroke-width="0.8"
         stroke-linecap="butt"
         stroke-linejoin="round"
         stroke="#000000"
         stroke-opacity="1"
         stroke-miterlimit="10"
         d="m 208.25,777.0905 h -3.5"
         id="path82" /><path
         fill="none"
         stroke-width="0.8"
         stroke-linecap="butt"
         stroke-linejoin="round"
         stroke="#000000"
         stroke-opacity="1"
         stroke-miterlimit="10"
         d="m 208.25,872.39909 h -3.5"
         id="path85" /><path
         fill="none"
         stroke-width="1.5"
         stroke-linecap="square"
         stroke-linejoin="round"
         stroke="#1f77b4"
         stroke-opacity="1"
         stroke-miterlimit="10"
         d="m 248.83204,872.39909 135.27343,-1.29297 135.27344,-10.29687 135.27344,2.55469 135.26953,-16.55469 135.27344,-248.49219 135.27348,-151.51953"
         id="path111" /><path
         fill-rule="nonzero"
         fill="#1f77b4"
         fill-opacity="1"
         stroke-width="1"
         stroke-linecap="butt"
         stroke-linejoin="round"
         stroke="#1f77b4"
         stroke-opacity="1"
         stroke-miterlimit="10"
         d="m 248.83203,869.39909 c 0.79688,0 1.5586,0.3164 2.1211,0.8789 0.5625,0.5625 0.8789,1.32422 0.8789,2.1211 0,0.79687 -0.3164,1.55859 -0.8789,2.12109 -0.5625,0.5625 -1.32422,0.87891 -2.1211,0.87891 -0.79687,0 -1.55859,-0.31641 -2.12109,-0.87891 -0.5625,-0.5625 -0.87891,-1.32422 -0.87891,-2.12109 0,-0.79688 0.31641,-1.5586 0.87891,-2.1211 0.5625,-0.5625 1.32422,-0.8789 2.12109,-0.8789 z m 0,0"
         id="path112" /><path
         fill-rule="nonzero"
         fill="#1f77b4"
         fill-opacity="1"
         stroke-width="1"
         stroke-linecap="butt"
         stroke-linejoin="round"
         stroke="#1f77b4"
         stroke-opacity="1"
         stroke-miterlimit="10"
         d="m 384.10547,868.10612 c 0.79688,0 1.5586,0.3164 2.1211,0.8789 0.5625,0.5625 0.8789,1.32422 0.8789,2.12109 0,0.79297 -0.3164,1.5586 -0.8789,2.1211 -0.5625,0.5625 -1.32422,0.87891 -2.1211,0.87891 -0.79687,0 -1.55859,-0.31641 -2.12109,-0.87891 -0.5625,-0.5625 -0.87891,-1.32813 -0.87891,-2.1211 0,-0.79687 0.31641,-1.55859 0.87891,-2.12109 0.5625,-0.5625 1.32422,-0.8789 2.12109,-0.8789 z m 0,0"
         id="path113" /><path
         fill-rule="nonzero"
         fill="#1f77b4"
         fill-opacity="1"
         stroke-width="1"
         stroke-linecap="butt"
         stroke-linejoin="round"
         stroke="#1f77b4"
         stroke-opacity="1"
         stroke-miterlimit="10"
         d="m 519.37891,857.80925 c 0.79297,0 1.5586,0.3164 2.1211,0.8789 0.5625,0.5625 0.8789,1.32422 0.8789,2.1211 0,0.79687 -0.3164,1.55859 -0.8789,2.12109 -0.5625,0.5625 -1.32813,0.87891 -2.1211,0.87891 -0.79687,0 -1.55859,-0.31641 -2.12109,-0.87891 -0.5625,-0.5625 -0.87891,-1.32422 -0.87891,-2.12109 0,-0.79688 0.31641,-1.5586 0.87891,-2.1211 0.5625,-0.5625 1.32422,-0.8789 2.12109,-0.8789 z m 0,0"
         id="path114" /><path
         fill-rule="nonzero"
         fill="#1f77b4"
         fill-opacity="1"
         stroke-width="1"
         stroke-linecap="butt"
         stroke-linejoin="round"
         stroke="#1f77b4"
         stroke-opacity="1"
         stroke-miterlimit="10"
         d="m 654.65235,860.36393 c 0.79297,0 1.5586,0.31641 2.1211,0.87891 0.5625,0.5625 0.8789,1.32422 0.8789,2.12109 0,0.79688 -0.3164,1.5586 -0.8789,2.1211 -0.5625,0.5625 -1.32813,0.8789 -2.1211,0.8789 -0.79687,0 -1.55859,-0.3164 -2.12109,-0.8789 -0.5625,-0.5625 -0.87891,-1.32422 -0.87891,-2.1211 0,-0.79687 0.31641,-1.55859 0.87891,-2.12109 0.5625,-0.5625 1.32422,-0.87891 2.12109,-0.87891 z m 0,0"
         id="path115" /><path
         fill-rule="nonzero"
         fill="#1f77b4"
         fill-opacity="1"
         stroke-width="1"
         stroke-linecap="butt"
         stroke-linejoin="round"
         stroke="#1f77b4"
         stroke-opacity="1"
         stroke-miterlimit="10"
         d="m 789.92188,843.80924 c 0.79687,0 1.55859,0.31641 2.12109,0.87891 0.5625,0.5625 0.87891,1.32422 0.87891,2.12109 0,0.79297 -0.31641,1.5586 -0.87891,2.1211 -0.5625,0.5625 -1.32422,0.8789 -2.12109,0.8789 -0.79297,0 -1.5586,-0.3164 -2.1211,-0.8789 -0.5625,-0.5625 -0.8789,-1.32813 -0.8789,-2.1211 0,-0.79687 0.3164,-1.55859 0.8789,-2.12109 0.5625,-0.5625 1.32813,-0.87891 2.1211,-0.87891 z m 0,0"
         id="path116-6" /><path
         fill-rule="nonzero"
         fill="#1f77b4"
         fill-opacity="1"
         stroke-width="1"
         stroke-linecap="butt"
         stroke-linejoin="round"
         stroke="#1f77b4"
         stroke-opacity="1"
         stroke-miterlimit="10"
         d="m 925.19532,595.31705 c 0.79687,0 1.55859,0.31641 2.12109,0.87891 0.5625,0.5625 0.87891,1.32422 0.87891,2.1211 0,0.79687 -0.31641,1.55859 -0.87891,2.12109 -0.5625,0.5625 -1.32422,0.8789 -2.12109,0.8789 -0.79297,0 -1.5586,-0.3164 -2.1211,-0.8789 -0.5625,-0.5625 -0.8789,-1.32422 -0.8789,-2.12109 0,-0.79688 0.3164,-1.5586 0.8789,-2.1211 0.5625,-0.5625 1.32813,-0.87891 2.1211,-0.87891 z m 0,0"
         id="path117" /><path
         fill-rule="nonzero"
         fill="#1f77b4"
         fill-opacity="1"
         stroke-width="1"
         stroke-linecap="butt"
         stroke-linejoin="round"
         stroke="#1f77b4"
         stroke-opacity="1"
         stroke-miterlimit="10"
         d="m 1060.4688,443.79753 c 0.7969,0 1.5586,0.3164 2.1211,0.8789 0.5625,0.5625 0.8789,1.32813 0.8789,2.1211 0,0.79687 -0.3164,1.5625 -0.8789,2.125 -0.5625,0.5625 -1.3242,0.875 -2.1211,0.875 -0.7969,0 -1.5586,-0.3125 -2.1211,-0.875 -0.5625,-0.5625 -0.8789,-1.32813 -0.8789,-2.125 0,-0.79297 0.3164,-1.5586 0.8789,-2.1211 0.5625,-0.5625 1.3242,-0.8789 2.1211,-0.8789 z m 0,0"
         id="path118" /><path
         fill="none"
         stroke-width="1.5"
         stroke-linecap="square"
         stroke-linejoin="round"
         stroke="#ff7f0e"
         stroke-opacity="1"
         stroke-miterlimit="10"
         d="M 248.83204,872.39909 384.10547,853.22331 519.37891,868.96159 654.65235,845.61784 789.92188,724.52409 925.19532,546.58659 1060.4688,439.87565"
         id="path119" /><path
         fill-rule="nonzero"
         fill="#ff7f0e"
         fill-opacity="1"
         stroke-width="1"
         stroke-linecap="butt"
         stroke-linejoin="round"
         stroke="#ff7f0e"
         stroke-opacity="1"
         stroke-miterlimit="10"
         d="m 248.83203,869.39909 c 0.79688,0 1.5586,0.3164 2.1211,0.8789 0.5625,0.5625 0.8789,1.32422 0.8789,2.1211 0,0.79687 -0.3164,1.55859 -0.8789,2.12109 -0.5625,0.5625 -1.32422,0.87891 -2.1211,0.87891 -0.79687,0 -1.55859,-0.31641 -2.12109,-0.87891 -0.5625,-0.5625 -0.87891,-1.32422 -0.87891,-2.12109 0,-0.79688 0.31641,-1.5586 0.87891,-2.1211 0.5625,-0.5625 1.32422,-0.8789 2.12109,-0.8789 z m 0,0"
         id="path120" /><path
         fill-rule="nonzero"
         fill="#ff7f0e"
         fill-opacity="1"
         stroke-width="1"
         stroke-linecap="butt"
         stroke-linejoin="round"
         stroke="#ff7f0e"
         stroke-opacity="1"
         stroke-miterlimit="10"
         d="m 384.10547,850.2233 c 0.79688,0 1.5586,0.31641 2.1211,0.87891 0.5625,0.5625 0.8789,1.32422 0.8789,2.12109 0,0.79297 -0.3164,1.5586 -0.8789,2.1211 -0.5625,0.5625 -1.32422,0.8789 -2.1211,0.8789 -0.79687,0 -1.55859,-0.3164 -2.12109,-0.8789 -0.5625,-0.5625 -0.87891,-1.32813 -0.87891,-2.1211 0,-0.79687 0.31641,-1.55859 0.87891,-2.12109 0.5625,-0.5625 1.32422,-0.87891 2.12109,-0.87891 z m 0,0"
         id="path121" /><path
         fill-rule="nonzero"
         fill="#ff7f0e"
         fill-opacity="1"
         stroke-width="1"
         stroke-linecap="butt"
         stroke-linejoin="round"
         stroke="#ff7f0e"
         stroke-opacity="1"
         stroke-miterlimit="10"
         d="m 519.37891,865.96158 c 0.79297,0 1.5586,0.31641 2.1211,0.87891 0.5625,0.5625 0.8789,1.32422 0.8789,2.12109 0,0.79688 -0.3164,1.5586 -0.8789,2.1211 -0.5625,0.5625 -1.32813,0.8789 -2.1211,0.8789 -0.79687,0 -1.55859,-0.3164 -2.12109,-0.8789 -0.5625,-0.5625 -0.87891,-1.32422 -0.87891,-2.1211 0,-0.79687 0.31641,-1.55859 0.87891,-2.12109 0.5625,-0.5625 1.32422,-0.87891 2.12109,-0.87891 z m 0,0"
         id="path122" /><path
         fill-rule="nonzero"
         fill="#ff7f0e"
         fill-opacity="1"
         stroke-width="1"
         stroke-linecap="butt"
         stroke-linejoin="round"
         stroke="#ff7f0e"
         stroke-opacity="1"
         stroke-miterlimit="10"
         d="m 654.65235,842.61784 c 0.79297,0 1.5586,0.3164 2.1211,0.8789 0.5625,0.5625 0.8789,1.32813 0.8789,2.1211 0,0.79687 -0.3164,1.55859 -0.8789,2.12109 -0.5625,0.5625 -1.32813,0.87891 -2.1211,0.87891 -0.79687,0 -1.55859,-0.31641 -2.12109,-0.87891 -0.5625,-0.5625 -0.87891,-1.32422 -0.87891,-2.12109 0,-0.79297 0.31641,-1.5586 0.87891,-2.1211 0.5625,-0.5625 1.32422,-0.8789 2.12109,-0.8789 z m 0,0"
         id="path123" /><path
         fill-rule="nonzero"
         fill="#ff7f0e"
         fill-opacity="1"
         stroke-width="1"
         stroke-linecap="butt"
         stroke-linejoin="round"
         stroke="#ff7f0e"
         stroke-opacity="1"
         stroke-miterlimit="10"
         d="m 789.92188,721.52409 c 0.79687,0 1.55859,0.3164 2.12109,0.8789 0.5625,0.5625 0.87891,1.32422 0.87891,2.1211 0,0.79297 -0.31641,1.55859 -0.87891,2.12109 -0.5625,0.5625 -1.32422,0.87891 -2.12109,0.87891 -0.79297,0 -1.5586,-0.31641 -2.1211,-0.87891 -0.5625,-0.5625 -0.8789,-1.32812 -0.8789,-2.12109 0,-0.79688 0.3164,-1.5586 0.8789,-2.1211 0.5625,-0.5625 1.32813,-0.8789 2.1211,-0.8789 z m 0,0"
         id="path124-5" /><path
         fill-rule="nonzero"
         fill="#ff7f0e"
         fill-opacity="1"
         stroke-width="1"
         stroke-linecap="butt"
         stroke-linejoin="round"
         stroke="#ff7f0e"
         stroke-opacity="1"
         stroke-miterlimit="10"
         d="m 925.19532,543.58659 c 0.79687,0 1.55859,0.3164 2.12109,0.8789 0.5625,0.5625 0.87891,1.32813 0.87891,2.1211 0,0.79687 -0.31641,1.55859 -0.87891,2.12109 -0.5625,0.5625 -1.32422,0.87891 -2.12109,0.87891 -0.79297,0 -1.5586,-0.31641 -2.1211,-0.87891 -0.5625,-0.5625 -0.8789,-1.32422 -0.8789,-2.12109 0,-0.79297 0.3164,-1.5586 0.8789,-2.1211 0.5625,-0.5625 1.32813,-0.8789 2.1211,-0.8789 z m 0,0"
         id="path125" /><path
         fill-rule="nonzero"
         fill="#ff7f0e"
         fill-opacity="1"
         stroke-width="1"
         stroke-linecap="butt"
         stroke-linejoin="round"
         stroke="#ff7f0e"
         stroke-opacity="1"
         stroke-miterlimit="10"
         d="m 1060.4688,436.87565 c 0.7969,0 1.5586,0.31641 2.1211,0.87891 0.5625,0.5625 0.8789,1.32812 0.8789,2.12109 0,0.79688 -0.3164,1.5586 -0.8789,2.1211 -0.5625,0.5625 -1.3242,0.8789 -2.1211,0.8789 -0.7969,0 -1.5586,-0.3164 -2.1211,-0.8789 -0.5625,-0.5625 -0.8789,-1.32422 -0.8789,-2.1211 0,-0.79297 0.3164,-1.55859 0.8789,-2.12109 0.5625,-0.5625 1.3242,-0.87891 2.1211,-0.87891 z m 0,0"
         id="path126" /><path
         fill="none"
         stroke-width="1.5"
         stroke-linecap="square"
         stroke-linejoin="round"
         stroke="#2ca02c"
         stroke-opacity="1"
         stroke-miterlimit="10"
         d="m 248.83204,872.39909 135.27343,5.85156 135.27344,-23.98046 135.27344,-40.375 135.26953,-127.94141 135.27344,-162.52734 135.27348,-89.94141"
         id="path127" /><path
         fill-rule="nonzero"
         fill="#2ca02c"
         fill-opacity="1"
         stroke-width="1"
         stroke-linecap="butt"
         stroke-linejoin="round"
         stroke="#2ca02c"
         stroke-opacity="1"
         stroke-miterlimit="10"
         d="m 248.83203,869.39909 c 0.79688,0 1.5586,0.3164 2.1211,0.8789 0.5625,0.5625 0.8789,1.32422 0.8789,2.1211 0,0.79687 -0.3164,1.55859 -0.8789,2.12109 -0.5625,0.5625 -1.32422,0.87891 -2.1211,0.87891 -0.79687,0 -1.55859,-0.31641 -2.12109,-0.87891 -0.5625,-0.5625 -0.87891,-1.32422 -0.87891,-2.12109 0,-0.79688 0.31641,-1.5586 0.87891,-2.1211 0.5625,-0.5625 1.32422,-0.8789 2.12109,-0.8789 z m 0,0"
         id="path128" /><path
         fill-rule="nonzero"
         fill="#2ca02c"
         fill-opacity="1"
         stroke-width="1"
         stroke-linecap="butt"
         stroke-linejoin="round"
         stroke="#2ca02c"
         stroke-opacity="1"
         stroke-miterlimit="10"
         d="m 384.10547,875.25065 c 0.79688,0 1.5586,0.31641 2.1211,0.87891 0.5625,0.5625 0.8789,1.32422 0.8789,2.12109 0,0.79688 -0.3164,1.5586 -0.8789,2.1211 -0.5625,0.5625 -1.32422,0.8789 -2.1211,0.8789 -0.79687,0 -1.55859,-0.3164 -2.12109,-0.8789 -0.5625,-0.5625 -0.87891,-1.32422 -0.87891,-2.1211 0,-0.79687 0.31641,-1.55859 0.87891,-2.12109 0.5625,-0.5625 1.32422,-0.87891 2.12109,-0.87891 z m 0,0"
         id="path129" /><path
         fill-rule="nonzero"
         fill="#2ca02c"
         fill-opacity="1"
         stroke-width="1"
         stroke-linecap="butt"
         stroke-linejoin="round"
         stroke="#2ca02c"
         stroke-opacity="1"
         stroke-miterlimit="10"
         d="m 519.37891,851.27019 c 0.79297,0 1.5586,0.3164 2.1211,0.8789 0.5625,0.5625 0.8789,1.32422 0.8789,2.12109 0,0.79297 -0.3164,1.5586 -0.8789,2.1211 -0.5625,0.5625 -1.32813,0.87891 -2.1211,0.87891 -0.79687,0 -1.55859,-0.31641 -2.12109,-0.87891 -0.5625,-0.5625 -0.87891,-1.32813 -0.87891,-2.1211 0,-0.79687 0.31641,-1.55859 0.87891,-2.12109 0.5625,-0.5625 1.32422,-0.8789 2.12109,-0.8789 z m 0,0"
         id="path130" /><path
         fill-rule="nonzero"
         fill="#2ca02c"
         fill-opacity="1"
         stroke-width="1"
         stroke-linecap="butt"
         stroke-linejoin="round"
         stroke="#2ca02c"
         stroke-opacity="1"
         stroke-miterlimit="10"
         d="m 654.65235,810.89518 c 0.79297,0 1.5586,0.31641 2.1211,0.87891 0.5625,0.5625 0.8789,1.32812 0.8789,2.12109 0,0.79688 -0.3164,1.55859 -0.8789,2.12109 -0.5625,0.5625 -1.32813,0.87891 -2.1211,0.87891 -0.79687,0 -1.55859,-0.31641 -2.12109,-0.87891 -0.5625,-0.5625 -0.87891,-1.32421 -0.87891,-2.12109 0,-0.79297 0.31641,-1.55859 0.87891,-2.12109 0.5625,-0.5625 1.32422,-0.87891 2.12109,-0.87891 z m 0,0"
         id="path131" /><path
         fill-rule="nonzero"
         fill="#2ca02c"
         fill-opacity="1"
         stroke-width="1"
         stroke-linecap="butt"
         stroke-linejoin="round"
         stroke="#2ca02c"
         stroke-opacity="1"
         stroke-miterlimit="10"
         d="m 789.92188,682.95377 c 0.79687,0 1.55859,0.31641 2.12109,0.87891 0.5625,0.5625 0.87891,1.32422 0.87891,2.12109 0,0.79297 -0.31641,1.5586 -0.87891,2.1211 -0.5625,0.5625 -1.32422,0.8789 -2.12109,0.8789 -0.79297,0 -1.5586,-0.3164 -2.1211,-0.8789 -0.5625,-0.5625 -0.8789,-1.32813 -0.8789,-2.1211 0,-0.79687 0.3164,-1.55859 0.8789,-2.12109 0.5625,-0.5625 1.32813,-0.87891 2.1211,-0.87891 z m 0,0"
         id="path132" /><path
         fill-rule="nonzero"
         fill="#2ca02c"
         fill-opacity="1"
         stroke-width="1"
         stroke-linecap="butt"
         stroke-linejoin="round"
         stroke="#2ca02c"
         stroke-opacity="1"
         stroke-miterlimit="10"
         d="m 925.19532,520.42643 c 0.79687,0 1.55859,0.31641 2.12109,0.87891 0.5625,0.5625 0.87891,1.32422 0.87891,2.12109 0,0.79688 -0.31641,1.5586 -0.87891,2.1211 -0.5625,0.5625 -1.32422,0.8789 -2.12109,0.8789 -0.79297,0 -1.5586,-0.3164 -2.1211,-0.8789 -0.5625,-0.5625 -0.8789,-1.32422 -0.8789,-2.1211 0,-0.79687 0.3164,-1.55859 0.8789,-2.12109 0.5625,-0.5625 1.32813,-0.87891 2.1211,-0.87891 z m 0,0"
         id="path133" /><path
         fill-rule="nonzero"
         fill="#2ca02c"
         fill-opacity="1"
         stroke-width="1"
         stroke-linecap="butt"
         stroke-linejoin="round"
         stroke="#2ca02c"
         stroke-opacity="1"
         stroke-miterlimit="10"
         d="m 1060.4688,430.48502 c 0.7969,0 1.5586,0.31641 2.1211,0.87891 0.5625,0.5625 0.8789,1.32812 0.8789,2.12109 0,0.79688 -0.3164,1.5586 -0.8789,2.1211 -0.5625,0.5625 -1.3242,0.8789 -2.1211,0.8789 -0.7969,0 -1.5586,-0.3164 -2.1211,-0.8789 -0.5625,-0.5625 -0.8789,-1.32422 -0.8789,-2.1211 0,-0.79297 0.3164,-1.55859 0.8789,-2.12109 0.5625,-0.5625 1.3242,-0.87891 2.1211,-0.87891 z m 0,0"
         id="path134" /></g></g></svg>
